<?xml version="1.0" encoding="UTF-8" standalone="no"?>
<!DOCTYPE svg PUBLIC "-//W3C//DTD SVG 1.1//EN" "http://www.w3.org/Graphics/SVG/1.1/DTD/svg11.dtd">
<svg width="100%" height="100%" viewBox="0 0 1022 678" version="1.1" xmlns="http://www.w3.org/2000/svg" xmlns:xlink="http://www.w3.org/1999/xlink" xml:space="preserve" xmlns:serif="http://www.serif.com/" style="fill-rule:evenodd;clip-rule:evenodd;stroke-linejoin:round;stroke-miterlimit:1.5;">
    <g transform="matrix(3.30294,0,0,3.16884,-809.652,-1152.98)">
        <rect x="245.131" y="363.85" width="309.121" height="213.754"/>
    </g>
    <g transform="matrix(2.05577,0,0,2.49036,-2137.48,-3802.13)">
        <g transform="matrix(125.484,0,0,125.484,1439.07,1631.76)">
        </g>
        <text x="1052.08px" y="1631.76px" style="font-family:'WarsawGothicExt', 'Warsaw Gothic';font-size:125.484px;fill:white;">M<tspan x="1131.13px 1191.99px 1254.61px 1308.56px 1369.42px " y="1631.76px 1631.76px 1631.76px 1631.76px 1631.76px ">USEUM</tspan></text>
    </g>
    <g transform="matrix(2.34423,0,0,2.83981,-2266.86,-4116.74)">
        <g transform="matrix(110.043,0,0,110.043,1393.1,1631.76)">
        </g>
        <text x="1052.08px" y="1631.76px" style="font-family:'WarsawGothicExt', 'Warsaw Gothic';font-size:110.043px;fill:white;">R<tspan x="1106.55px 1159.7px 1212.74px 1270.51px 1299.12px 1346.44px " y="1631.76px 1631.76px 1631.76px 1631.76px 1631.76px 1631.76px ">OCKIES</tspan></text>
    </g>
    <g transform="matrix(1.0909,0,0,1.32152,-278.481,-1894.84)">
        <g transform="matrix(63.0589,0,0,63.0589,1142.8,1631.76)">
        </g>
        <text x="1052.08px" y="1631.76px" style="font-family:'ArialMT', 'Arial', sans-serif;font-size:63.059px;fill:white;">O<tspan x="1104.28px " y="1631.76px ">F</tspan></text>
    </g>
    <g transform="matrix(0.713789,0,0,0.864688,-724.298,-1063.07)">
        <g transform="matrix(96.3739,0,0,96.3739,1254.46,1631.76)">
        </g>
        <text x="1052.08px" y="1631.76px" style="font-family:'ArialMT', 'Arial', sans-serif;font-size:96.374px;fill:white;">T<tspan x="1115.76px 1190.18px " y="1631.76px 1631.76px ">HE</tspan></text>
    </g>
    <g transform="matrix(0.557426,0,0,0.672448,-559.488,-451.854)">
        <g transform="matrix(110.83,0,0,110.83,2786.73,1631.76)">
        </g>
        <text x="1052.08px" y="1631.76px" style="font-family:'ArialMT', 'Arial', sans-serif;font-size:110.83px;fill:white;">M<tspan x="1149.94px 1241.69px 1327.27px 1392.28px 1471.75px 1557.33px 1630.67px 1667.01px 1746.47px 1811.49px 1882.73px 1955.97px 2035.43px 2071.76px 2157.34px 2242.92px 2279.26px 2358.72px 2438.18px 2523.76px 2603.23px 2639.56px 2712.8px " y="1631.76px 1631.76px 1631.76px 1631.76px 1631.76px 1631.76px 1631.76px 1631.76px 1631.76px 1631.76px 1631.76px 1631.76px 1631.76px 1631.76px 1631.76px 1631.76px 1631.76px 1631.76px 1631.76px 1631.76px 1631.76px 1631.76px 1631.76px ">ONTANA STATE UNIVERSITY</tspan></text>
    </g>
    <g transform="matrix(1.01331,0,0,1,-1330.54,-1742.74)">
        <path d="M1344.2,2300.1L2293.44,2300.1" style="fill:none;stroke:white;stroke-width:8.28px;"/>
    </g>
</svg>
