<?xml version="1.0" encoding="UTF-8" standalone="no"?>
<!DOCTYPE svg PUBLIC "-//W3C//DTD SVG 1.1//EN" "http://www.w3.org/Graphics/SVG/1.1/DTD/svg11.dtd">
<svg width="100%" height="100%" viewBox="0 0 974 683" version="1.1" xmlns="http://www.w3.org/2000/svg" xmlns:xlink="http://www.w3.org/1999/xlink" xml:space="preserve" xmlns:serif="http://www.serif.com/" style="fill-rule:evenodd;clip-rule:evenodd;stroke-linejoin:round;stroke-miterlimit:2;">
    <g transform="matrix(1,0,0,1,-194.628,-34.6346)">
        <g transform="matrix(4.16667,0,0,4.16667,0,0)">
            <g transform="matrix(1,0,0,1,0,-665.547)">
                <path d="M149.725,755.365L149.725,749.948L149.301,749.948C145.219,749.948 143.909,748.6 143.909,744.403L143.909,720.219C143.909,719.276 145.587,719.264 146.114,720.227C150.32,727.337 160.492,744.697 162.532,748.194C162.682,748.45 163.401,749.847 164.299,748.312C166.211,745.047 176.532,727.389 180.81,720.217C181.415,719.262 183.071,719.262 183.064,720.217C183.064,726.724 183.055,744.403 183.055,744.403C183.055,748.705 181.84,749.948 177.644,749.948L177.222,749.948L177.222,755.162C186.388,755.903 195.063,757.451 202.914,759.695L202.914,749.948L202.494,749.948C198.402,749.948 197.217,748.705 197.217,744.403L197.217,711.113C197.217,706.763 198.352,705.573 202.494,705.573L202.914,705.573L202.914,697.244L179.155,697.244C179.155,697.244 167.275,719.916 164.095,725.909C163.793,726.47 163.111,726.48 162.822,725.925C159.708,719.952 147.876,697.244 147.876,697.244L124.014,697.244L124.008,705.572L124.43,705.573C128.563,705.573 129.692,706.763 129.692,711.113L129.692,744.403C129.692,748.705 128.512,749.948 124.43,749.948L124.008,749.948L124.014,760.303C131.833,757.932 140.538,756.251 149.665,755.371C149.694,755.367 149.725,755.365 149.725,755.365" style="fill:rgb(0,62,126);"/>
            </g>
        </g>
        <g transform="matrix(4.16667,0,0,4.16667,0,0)">
            <g transform="matrix(1,0,0,1,0,-598.042)">
                <path d="M223.703,701.016C217.878,697.413 210.815,694.448 202.915,692.189C195.063,689.946 186.388,688.397 177.222,687.656C172.956,687.312 168.588,687.137 164.157,687.145C159.255,687.155 154.407,687.407 149.665,687.865C140.538,688.746 131.833,690.426 124.014,692.797C116.299,695.133 109.435,698.13 103.89,701.701C103.634,701.871 103.536,702.19 103.647,702.468C103.761,702.744 104.061,702.905 104.356,702.844C122.488,698.643 142.642,696.514 164.275,696.514C185.343,696.514 206.286,698.521 223.24,702.166C223.559,702.225 223.865,702.05 223.963,701.76C224.073,701.517 223.969,701.182 223.703,701.016" style="fill:rgb(237,177,17);"/>
            </g>
        </g>
        <g transform="matrix(4.16667,0,0,4.16667,0,0)">
            <g transform="matrix(1,0,0,1,0,-716.11)">
                <path d="M169.83,737.192L169.83,737.207C169.83,737.211 169.83,737.217 169.826,737.225C169.826,737.215 169.83,737.201 169.83,737.192ZM169.586,736.882C169.524,736.906 169.416,736.971 169.382,737.148C169.379,737.161 169.379,737.173 169.379,737.187C169.344,740.168 164.906,747.601 164.862,747.676C164.858,747.683 161.119,754.673 161.119,754.673C157.804,760.611 159.755,765.056 163.111,771.157C163.151,771.23 163.226,771.274 163.309,771.274C163.392,771.274 163.468,771.23 163.504,771.157L173.201,753.313C176.102,747.737 173.415,743.036 170.817,738.485L169.991,737.024C169.978,736.999 169.96,736.975 169.936,736.957C169.853,736.89 169.715,736.836 169.586,736.882" style="fill:rgb(237,177,17);"/>
            </g>
        </g>
        <g transform="matrix(4.16667,0,0,4.16667,0,0)">
            <g transform="matrix(1,0,0,1,0,-740.937)">
                <path d="M156.72,783.327C156.72,783.323 156.716,783.317 156.716,783.315C156.716,783.309 156.72,783.307 156.72,783.298L156.72,783.331L156.72,783.327ZM163.238,749.249C163.155,749.249 163.082,749.293 163.04,749.366L153.345,767.21C150.445,772.783 153.131,777.491 155.73,782.039L156.553,783.5C156.569,783.524 156.589,783.549 156.609,783.564C156.692,783.633 156.832,783.688 156.963,783.641C157.025,783.617 157.134,783.553 157.165,783.372C157.168,783.36 157.168,783.348 157.168,783.335C157.204,780.355 161.64,772.922 161.684,772.849C161.691,772.84 165.427,765.848 165.427,765.848C168.743,759.913 166.792,755.468 163.437,749.364C163.4,749.292 163.321,749.249 163.238,749.249" style="fill:rgb(246,210,138);"/>
            </g>
        </g>
        <g transform="matrix(4.16667,0,0,4.16667,0,0)">
            <g transform="matrix(1,0,0,1,0,-465.224)">
                <path d="M83.309,623.12L81.118,629.258L85.889,629.258L83.915,623.12C83.915,623.12 83.848,622.909 83.612,622.909C83.377,622.909 83.309,623.12 83.309,623.12ZM86.082,620.159L90.963,632.928C91.571,634.499 91.955,635.463 93.28,635.601L93.28,637.065C91.983,637.009 90.662,637.009 89.362,637.009C88.041,637.009 86.744,637.009 85.421,637.065L85.421,635.601C86.91,635.549 87.515,635.273 87.515,634.359C87.515,634.111 87.43,633.699 87.239,633.094L86.635,631.3L80.429,631.3L79.712,633.449C79.603,633.782 79.52,634.085 79.52,634.387C79.52,635.38 80.067,635.52 81.532,635.601L81.532,637.064C80.234,637.008 78.966,637.008 77.726,637.008C76.484,637.008 75.299,637.008 74.32,637.064L74.32,635.601C75.243,635.548 75.796,634.692 76.459,633.009L81.56,620.159L86.082,620.159Z" style="fill:rgb(0,62,126);"/>
            </g>
        </g>
        <g transform="matrix(4.16667,0,0,4.16667,0,0)">
            <g transform="matrix(1,0,0,1,0,-465.439)">
                <path d="M60.524,625.327L58.618,625.327C58.644,625.134 58.644,624.944 58.644,624.779C58.644,622.688 57.391,621.755 55.11,621.755C53.132,621.755 51.893,622.772 51.893,624.227C51.893,625.408 52.556,626.068 54.009,626.646L57.499,628.047C59.889,629.009 61.071,630.463 61.071,632.498C61.071,635.683 58.682,637.524 54.229,637.524C52.279,637.524 50.248,637.277 48.186,636.81L48.186,632.057L50.193,632.058C50.193,632.194 50.164,632.332 50.164,632.442C50.164,634.61 51.484,635.714 54.037,635.714C56.098,635.714 57.223,634.804 57.223,633.156C57.223,631.978 56.647,631.372 55.303,630.794L52.088,629.42C49.422,628.265 48.105,627.03 48.105,624.827C48.105,621.81 50.466,619.915 54.778,619.915C56.539,619.915 58.46,620.189 60.523,620.684L60.523,625.327L60.524,625.327Z" style="fill:rgb(0,62,126);"/>
            </g>
        </g>
        <g transform="matrix(4.16667,0,0,4.16667,0,0)">
            <g transform="matrix(1,0,0,1,0,-464.96)">
                <path d="M238.749,625.136L236.887,625.136C236.915,624.95 236.915,624.759 236.915,624.593C236.915,622.537 235.683,621.618 233.449,621.618C231.516,621.618 230.301,622.62 230.301,624.055C230.301,625.214 230.95,625.868 232.374,626.436L235.791,627.816C238.129,628.766 239.288,630.199 239.288,632.204C239.288,635.346 236.945,637.16 232.592,637.16C230.679,637.16 228.689,636.919 226.672,636.455L226.672,631.774L228.637,631.774C228.637,631.904 228.607,632.042 228.607,632.148C228.607,634.29 229.901,635.374 232.4,635.374C234.416,635.374 235.518,634.479 235.518,632.855C235.518,631.695 234.956,631.092 233.639,630.528L230.493,629.173C227.884,628.035 226.589,626.818 226.589,624.648C226.589,621.67 228.903,619.801 233.127,619.801C234.846,619.801 236.734,620.073 238.749,620.56L238.749,625.136L238.749,625.136Z" style="fill:rgb(0,62,126);"/>
            </g>
        </g>
        <g transform="matrix(4.16667,0,0,4.16667,0,0)">
            <g transform="matrix(1,0,0,1,0,-465.067)">
                <path d="M66.591,620.211L71.209,620.211C71.782,620.211 73.533,620.156 76.455,620.156L76.455,624.943L74.653,624.943C74.653,625.048 74.653,624.914 74.653,624.774C74.653,622.616 74.051,622.178 72.029,622.178L70.827,622.178L70.827,633.304C70.827,634.804 71.179,635.463 72.576,635.463L72.972,635.463L72.972,636.911C71.757,636.855 70.362,636.855 68.995,636.855C67.602,636.855 66.207,636.855 64.815,636.911L64.815,635.463L65.388,635.463C66.781,635.463 67.136,634.804 67.136,633.304L67.136,622.178L65.662,622.178C63.829,622.178 63.202,622.673 63.202,624.504C63.202,624.721 63.202,624.938 63.228,624.943L61.508,624.943L61.508,620.156C64.348,620.157 66.044,620.211 66.591,620.211" style="fill:rgb(0,62,126);"/>
            </g>
        </g>
        <g transform="matrix(4.16667,0,0,4.16667,0,0)">
            <g transform="matrix(1,0,0,1,0,-465.067)">
                <path d="M96.203,620.212L100.821,620.212C101.394,620.212 103.144,620.156 106.069,620.156L106.069,624.97L104.265,624.97C104.265,625.048 104.265,624.914 104.265,624.775C104.265,622.616 103.662,622.178 101.642,622.178L100.439,622.178L100.439,633.304C100.439,634.804 100.792,635.463 102.187,635.463L102.76,635.463L102.76,636.911C101.367,636.855 99.973,636.855 98.607,636.855C97.213,636.855 96.133,636.855 94.736,636.911L94.736,635.463L95,635.463C96.394,635.463 96.749,634.804 96.749,633.304L96.749,622.178L95.272,622.178C93.44,622.178 92.813,622.673 92.813,624.504C92.813,624.721 92.813,624.938 92.839,624.97L91.12,624.97L91.12,620.156C93.961,620.157 95.656,620.212 96.203,620.212" style="fill:rgb(0,62,126);"/>
            </g>
        </g>
        <g transform="matrix(4.16667,0,0,4.16667,0,0)">
            <g transform="matrix(1,0,0,1,0,-465.011)">
                <path d="M120.488,620.156L120.488,624.776L118.929,624.776L118.929,624.035C118.929,622.452 118.027,622.123 116.003,622.123L112.644,622.123L112.644,627.343L113.6,627.343C115.404,627.343 115.866,627.019 115.894,625.158L117.371,625.158L117.371,631.222L115.894,631.222C115.815,629.422 115.404,629.093 113.708,629.093L112.644,629.093L112.644,634.889L115.703,634.889C118.437,634.889 119.037,634.53 119.093,631.609L120.624,631.609L120.624,636.856L106.903,636.856L106.903,635.407L107.232,635.407C108.707,635.407 108.981,634.695 108.981,633.249L108.981,623.68C108.981,622.178 108.623,621.551 107.232,621.551L106.903,621.551L106.903,620.156L120.488,620.156L120.488,620.156Z" style="fill:rgb(0,62,126);"/>
            </g>
        </g>
        <g transform="matrix(4.16667,0,0,4.16667,0,0)">
            <g transform="matrix(1,0,0,1,0,-464.687)">
                <path d="M135.254,619.831C136.484,619.831 137.712,619.803 138.889,619.776L138.889,621.227L138.56,621.227C137.057,621.227 136.781,621.772 136.781,623.355L136.781,630.71C136.781,633.334 137.629,634.563 140.2,634.563C142.687,634.563 143.723,633.304 143.723,630.657L143.723,623.355C143.723,621.852 143.37,621.226 141.977,621.226L141.65,621.226L141.65,619.776C142.823,619.803 143.945,619.831 145.065,619.831C146.214,619.831 147.308,619.803 148.4,619.776L148.4,621.226L147.988,621.226C147.005,621.226 146.621,621.908 146.621,623.355L146.621,630.408C146.621,634.888 144.736,636.912 139.928,636.912C135.415,636.912 133.202,634.973 133.202,631.089L133.202,623.354C133.202,621.933 132.958,621.225 131.862,621.225L131.536,621.225L131.536,619.775C132.793,619.803 134.053,619.831 135.254,619.831" style="fill:rgb(0,62,126);"/>
            </g>
        </g>
        <g transform="matrix(4.16667,0,0,4.16667,0,0)">
            <g transform="matrix(1,0,0,1,0,-465.067)">
                <path d="M172.369,620.211C173.654,620.211 174.967,620.183 176.276,620.156L176.276,621.607L175.919,621.607C174.529,621.607 174.171,622.233 174.171,623.735L174.171,633.304C174.171,634.804 174.529,635.463 175.919,635.463L176.276,635.463L176.276,636.911C174.967,636.855 173.654,636.855 172.369,636.855C171.054,636.855 169.743,636.855 168.433,636.911L168.433,635.463L168.761,635.463C170.153,635.463 170.512,634.804 170.512,633.304L170.512,623.735C170.512,622.233 170.154,621.607 168.761,621.607L168.433,621.607L168.433,620.156C169.743,620.183 171.054,620.211 172.369,620.211" style="fill:rgb(0,62,126);"/>
            </g>
        </g>
        <g transform="matrix(4.16667,0,0,4.16667,0,0)">
            <g transform="matrix(1,0,0,1,0,-464.8)">
                <path d="M206.737,631.397C206.683,634.318 206.08,634.677 203.346,634.677L200.287,634.677L200.287,628.882L201.353,628.882C203.044,628.882 203.454,629.211 203.538,631.01L205.012,631.01L205.012,624.947L203.538,624.947C203.514,626.808 203.044,627.131 201.245,627.131L200.287,627.131L200.287,621.911L203.652,621.911C205.673,621.911 206.573,622.24 206.573,623.823L206.573,624.564L208.131,624.564L208.131,619.944L194.604,619.944L194.604,619.889C193.618,619.916 192.554,619.944 191.433,619.944C190.285,619.944 189.081,619.916 187.769,619.889L187.769,621.339C189.11,621.339 189.739,621.611 189.739,622.323C189.739,622.514 189.711,622.758 189.63,623.035L186.398,632.771C186.398,632.771 186.305,632.983 186.104,632.983C185.897,632.983 185.79,632.766 185.79,632.766L182.411,622.977C182.305,622.678 182.246,622.432 182.246,622.24C182.246,621.475 182.821,621.392 184.219,621.339L184.219,619.889C182.713,619.916 181.346,619.944 180.17,619.944C178.995,619.944 177.985,619.916 177.138,619.889L177.138,621.339C178.069,621.418 178.449,621.993 178.887,623.196L183.973,636.911L187.935,636.911L192.853,623.083C193.204,622.046 193.617,621.527 194.603,621.338L194.874,621.338C196.269,621.338 196.626,621.965 196.626,623.468L196.626,633.036C196.626,634.482 196.352,635.194 194.874,635.194L194.546,635.194L194.546,636.643L208.266,636.643L208.266,631.396L206.737,631.396L206.737,631.397Z" style="fill:rgb(0,62,126);"/>
            </g>
        </g>
        <g transform="matrix(4.16667,0,0,4.16667,0,0)">
            <g transform="matrix(1,0,0,1,0,-465.066)">
                <path d="M215.556,627.729L216.812,627.729C219.189,627.729 220.283,627.015 220.283,625.018C220.283,622.945 219.246,622.177 216.95,622.177L215.556,622.177L215.556,627.729L215.556,627.729ZM216.756,620.156C221.54,620.156 223.781,621.358 223.781,624.667C223.781,626.715 222.744,628.056 220.829,628.517C222.388,628.738 222.77,629.53 223.234,631.249C223.671,632.946 223.864,634.177 224.356,634.75C224.643,635.093 225.008,635.304 225.463,635.4C225.463,635.368 225.461,636.911 225.461,636.911L221.209,636.911C220.199,634.585 220.122,632.483 219.599,631.037C219.218,629.94 218.373,629.503 216.867,629.503L215.556,629.503L215.556,633.303C215.556,634.803 215.909,635.462 217.303,635.462L217.659,635.462L217.659,636.911C216.35,636.855 215.035,636.855 213.752,636.855C212.439,636.855 211.126,636.855 209.815,636.911L209.815,635.462L210.143,635.462C211.536,635.462 211.895,634.803 211.895,633.303L211.895,623.735C211.895,622.233 211.537,621.606 210.143,621.606L209.816,621.606L209.816,620.156L216.756,620.156Z" style="fill:rgb(0,62,126);"/>
            </g>
        </g>
        <g transform="matrix(4.16667,0,0,4.16667,0,0)">
            <g transform="matrix(1,0,0,1,0,-465.067)">
                <path d="M244.618,620.211C245.899,620.211 247.216,620.183 248.523,620.156L248.523,621.607L248.168,621.607C246.774,621.607 246.419,622.233 246.419,623.735L246.419,633.304C246.419,634.804 246.774,635.463 248.168,635.463L248.523,635.463L248.523,636.911C247.216,636.855 245.899,636.855 244.618,636.855C243.303,636.855 241.989,636.855 240.679,636.911L240.679,635.463L241.008,635.463C242.401,635.463 242.757,634.804 242.757,633.304L242.757,623.735C242.757,622.233 242.401,621.607 241.008,621.607L240.679,621.607L240.679,620.156C241.99,620.183 243.303,620.211 244.618,620.211" style="fill:rgb(0,62,126);"/>
            </g>
        </g>
        <g transform="matrix(4.16667,0,0,4.16667,0,0)">
            <g transform="matrix(1,0,0,1,0,-465.067)">
                <path d="M254.208,620.211L258.824,620.211C259.395,620.211 261.148,620.156 264.073,620.156L264.073,624.924L262.271,624.924C262.267,625.048 262.267,624.914 262.267,624.774C262.267,622.616 261.662,622.178 259.641,622.178L258.441,622.178L258.441,633.304C258.441,634.804 258.797,635.463 260.189,635.463L260.765,635.463L260.765,636.911C259.372,636.855 257.978,636.855 256.608,636.855C255.216,636.855 253.824,636.855 252.43,636.911L252.43,635.463L253,635.463C254.395,635.463 254.751,634.804 254.751,633.304L254.751,622.178L253.278,622.178C251.447,622.178 250.816,622.673 250.816,624.504C250.816,624.721 250.816,624.938 250.846,624.924L249.123,624.924L249.123,620.156C251.964,620.157 253.658,620.211 254.208,620.211" style="fill:rgb(0,62,126);"/>
            </g>
        </g>
        <g transform="matrix(4.16667,0,0,4.16667,0,0)">
            <g transform="matrix(1,0,0,1,0,-465.069)">
                <path d="M267.941,620.213C269.114,620.213 270.348,620.185 271.571,620.158L271.571,621.608L271.439,621.608C270.56,621.608 270.184,621.853 270.184,622.401C270.184,622.675 270.316,623.002 270.507,623.382L272.342,627.096C272.342,627.096 272.463,627.307 272.646,627.307C272.829,627.307 272.947,627.103 272.947,627.103L274.771,623.518C274.962,623.137 275.073,622.753 275.073,622.481C275.073,621.852 274.66,621.608 273.736,621.608L273.736,620.157C274.909,620.185 276.03,620.212 277.148,620.212C278.24,620.212 279.332,620.185 280.403,620.157L280.403,621.608L280.294,621.608C279.415,621.608 278.898,622.234 278.159,623.437L274.088,630.104L274.088,633.494C274.088,634.944 274.36,635.463 275.945,635.463L276.328,635.463L276.328,636.912C275.043,636.857 273.736,636.857 272.393,636.857C271.082,636.857 269.741,636.857 268.403,636.912L268.403,635.463L268.788,635.463C270.347,635.463 270.644,634.944 270.644,633.494L270.644,630.05L266.816,623.411C266.162,622.289 265.614,621.661 264.495,621.607L264.495,620.157C265.615,620.185 266.764,620.213 267.941,620.213" style="fill:rgb(0,62,126);"/>
            </g>
        </g>
        <g transform="matrix(4.16667,0,0,4.16667,0,0)">
            <g transform="matrix(1,0,0,1,0,-464.862)">
                <path d="M156.04,619.978L161.886,632.464C161.886,632.464 162.005,632.746 162.276,632.67C162.51,632.599 162.51,632.334 162.51,632.334L162.439,623.59C162.439,622.076 162.108,621.442 160.673,621.442L160.339,621.442L160.339,619.979C161.528,620.006 162.687,620.034 163.873,620.034C165.085,620.034 166.272,620.006 167.484,619.979L167.484,621.442L167.154,621.442C165.746,621.442 165.387,622.077 165.387,623.59L165.387,636.884L160.701,636.884L154.841,624.418C154.841,624.418 154.729,624.182 154.487,624.241C154.246,624.3 154.228,624.554 154.228,624.554L154.277,633.245C154.277,634.759 154.606,635.423 156.04,635.423L156.372,635.423L156.372,636.884C155.187,636.829 153.998,636.829 152.813,636.829C151.626,636.829 150.441,636.829 149.23,636.884L149.23,635.423L149.559,635.423C150.965,635.423 151.354,634.759 151.354,633.245L151.354,623.59C151.354,622.076 150.965,621.442 149.559,621.442L149.23,621.442L149.23,619.979L156.04,619.979L156.04,619.978Z" style="fill:rgb(0,62,126);"/>
            </g>
        </g>
        <g transform="matrix(4.16667,0,0,4.16667,0,0)">
            <g transform="matrix(1,0,0,1,0,-530.344)">
                <path d="M94.641,661.096C94.641,669.218 97.703,673.507 103.02,673.507C108.38,673.507 111.395,669.269 111.395,661.096C111.395,652.924 108.433,648.631 103.02,648.631C97.65,648.631 94.641,652.924 94.641,661.096ZM118.751,661.147C118.751,671.568 112.926,677.544 103.019,677.544C93.105,677.544 87.283,671.568 87.283,661.147C87.283,650.728 93.106,644.8 103.019,644.8C112.927,644.8 118.751,650.728 118.751,661.147" style="fill:rgb(0,62,126);"/>
            </g>
        </g>
        <g transform="matrix(4.16667,0,0,4.16667,0,0)">
            <g transform="matrix(1,0,0,1,0,-530.343)">
                <path d="M131.148,645.515L141.975,668.641C141.975,668.641 142.198,669.162 142.698,669.017C143.134,668.893 143.127,668.397 143.127,668.397L142.998,652.205C142.998,649.398 142.386,648.219 139.728,648.219L139.116,648.219L139.116,645.515C141.313,645.567 143.459,645.618 145.657,645.618C147.903,645.618 150.1,645.567 152.348,645.515L152.348,648.219L151.734,648.219C149.13,648.219 148.464,649.398 148.464,652.205L148.464,676.828L139.78,676.828L128.822,654.79C128.822,654.79 128.615,654.35 128.163,654.462C127.713,654.571 127.683,655.042 127.683,655.042L127.876,670.088C127.876,672.897 128.493,674.122 131.147,674.122L131.761,674.122L131.761,676.828C129.565,676.727 127.366,676.727 125.173,676.727C122.974,676.727 120.777,676.727 118.529,676.828L118.529,674.122L119.143,674.122C121.749,674.122 122.463,672.898 122.463,670.088L122.463,652.205C122.463,649.398 121.749,648.219 119.143,648.219L118.529,648.219L118.529,645.515L131.148,645.515Z" style="fill:rgb(0,62,126);"/>
            </g>
        </g>
        <g transform="matrix(4.16667,0,0,4.16667,0,0)">
            <g transform="matrix(1,0,0,1,0,-530.344)">
                <path d="M163.417,645.618L172.051,645.618C173.126,645.618 176.39,645.515 181.856,645.515L181.856,654.966L178.487,654.966L178.487,654.148C178.487,650.113 177.363,649.297 173.583,649.297L171.335,649.297L171.335,670.089C171.335,672.898 171.998,674.123 174.602,674.123L175.676,674.123L175.676,676.829C173.072,676.728 170.466,676.728 167.91,676.728C165.308,676.728 162.701,676.728 160.097,676.829L160.097,674.123L161.17,674.123C163.775,674.123 164.441,672.898 164.441,670.089L164.441,649.297L161.68,649.297C158.255,649.297 157.081,650.215 157.081,653.637C157.081,654.047 157.081,654.455 157.133,654.966L153.915,654.966L153.915,645.515C159.227,645.516 162.395,645.618 163.417,645.618" style="fill:rgb(0,62,126);"/>
            </g>
        </g>
        <g transform="matrix(4.16667,0,0,4.16667,0,0)">
            <g transform="matrix(1,0,0,1,0,-530.343)">
                <path d="M191.011,662.97L195.229,650.999C195.229,650.999 195.355,650.608 195.79,650.608C196.224,650.608 196.353,650.995 196.353,650.995L200.265,663.02L191.011,662.97ZM240.22,645.618C238.022,645.618 235.879,645.566 233.684,645.515L233.684,648.219L234.294,648.219C236.95,648.219 237.565,649.398 237.565,652.205L237.695,668.397C237.695,668.397 237.699,668.894 237.262,669.017C236.763,669.161 236.538,668.641 236.538,668.641L225.713,645.515L213.095,645.515L213.095,648.219L213.71,648.219C216.312,648.219 217.028,649.398 217.028,652.205L217.028,670.088C217.028,672.896 216.312,674.122 213.71,674.122L213.702,674.122C211.25,673.865 210.534,672.079 209.41,669.166L200.373,645.515L191.993,645.515L182.541,669.32C181.315,672.434 180.294,674.019 178.248,674.122L178.248,676.828C180.394,676.727 182.59,676.727 184.888,676.727C187.187,676.727 189.539,676.727 191.939,676.828L191.939,674.122C189.231,673.968 188.212,673.714 188.212,671.872C188.212,671.312 188.366,670.75 188.569,670.136L189.594,666.901L201.54,666.905L202.514,669.474C202.872,670.598 203.025,671.363 203.025,671.822C203.025,673.507 201.9,674.02 199.145,674.122L199.145,676.829C200.263,676.782 207.645,676.685 212.307,676.685C217.2,676.685 225.684,676.799 226.326,676.829L226.326,674.122L225.713,674.122C223.057,674.122 222.444,672.898 222.444,670.089L222.358,655.042C222.358,655.042 222.383,654.571 222.834,654.465C223.286,654.354 223.493,654.791 223.493,654.791L234.349,676.828L243.032,676.828L243.032,652.205C243.032,649.398 243.697,648.22 246.298,648.22L246.916,648.22L246.916,645.516C244.663,645.566 242.469,645.618 240.22,645.618" style="fill:rgb(0,62,126);"/>
            </g>
        </g>
        <g transform="matrix(4.16667,0,0,4.16667,0,0)">
            <g transform="matrix(1,0,0,1,0,-530.345)">
                <path d="M261.966,651L257.675,663.021L266.979,663.021L263.088,650.997C263.088,650.997 262.962,650.61 262.524,650.61C262.088,650.609 261.966,651 261.966,651ZM267.103,645.516L276.146,669.167C277.269,672.081 277.983,673.867 280.435,674.123L280.435,676.829C278.034,676.728 275.583,676.728 273.179,676.728C270.728,676.728 268.33,676.728 265.878,676.829L265.878,674.123C268.635,674.02 269.761,673.507 269.761,671.822C269.761,671.363 269.607,670.599 269.246,669.474L268.383,666.876L256.377,666.872L255.304,670.136C255.099,670.751 254.948,671.313 254.948,671.873C254.948,673.714 255.968,673.968 258.677,674.122L258.677,676.828C256.273,676.728 253.924,676.728 251.624,676.728C249.325,676.728 247.129,676.728 244.983,676.828L244.983,674.122C247.029,674.019 248.048,672.435 249.274,669.32L258.727,645.515L267.103,645.516L267.103,645.516Z" style="fill:rgb(0,62,126);"/>
            </g>
        </g>
        <g transform="matrix(4.16667,0,0,4.16667,0,0)">
            <g transform="matrix(1,0,0,1,0,-530.329)">
                <path d="M66.815,671.96C66.371,671.96 66.068,671.369 66.068,671.369L57.562,655.782C57.562,655.782 57.147,655.01 56.737,655.01C56.21,655.01 56.212,655.758 56.212,655.758L56.212,670.091C56.212,672.898 56.876,674.124 59.484,674.124L60.095,674.124L60.095,676.833C58.001,676.732 55.804,676.732 53.558,676.732C51.36,676.732 49.063,676.732 46.711,676.833L46.711,674.124L47.327,674.124C49.982,674.124 50.544,672.898 50.593,670.091L50.902,652.209L50.902,651.953C50.902,649.348 50.134,648.224 47.582,648.224L46.967,648.224L46.967,645.516C49.266,645.571 51.566,645.62 53.917,645.62C56.212,645.62 57.518,645.571 59.817,645.516L66.276,659.985C66.276,659.985 66.403,660.35 66.83,660.35C67.258,660.35 67.37,659.989 67.37,659.989L74.319,645.496C76.308,645.548 77.459,645.599 79.706,645.599C81.954,645.599 84.304,645.548 86.807,645.496L86.807,648.205L86.143,648.205C83.589,648.205 82.873,649.277 82.873,651.883L82.873,652.188L83.179,670.069C83.231,672.879 83.743,674.103 86.45,674.103L87.064,674.103L87.064,676.813C84.712,676.708 82.415,676.708 80.167,676.708C77.919,676.708 75.723,676.708 73.523,676.813L73.523,674.103L74.192,674.103C76.796,674.103 77.459,672.879 77.459,670.069L77.459,655.624C77.459,655.624 77.52,654.863 76.945,654.863C76.525,654.863 76.135,655.626 76.135,655.626L67.568,671.346C67.568,671.347 67.271,671.96 66.815,671.96" style="fill:rgb(0,62,126);"/>
            </g>
        </g>
    </g>
</svg>
