<?xml version="1.0" encoding="UTF-8" standalone="no"?>
<!DOCTYPE svg PUBLIC "-//W3C//DTD SVG 1.1//EN" "http://www.w3.org/Graphics/SVG/1.1/DTD/svg11.dtd">
<svg width="100%" height="100%" viewBox="0 0 909 609" version="1.1" xmlns="http://www.w3.org/2000/svg" xmlns:xlink="http://www.w3.org/1999/xlink" xml:space="preserve" xmlns:serif="http://www.serif.com/" style="fill-rule:evenodd;clip-rule:evenodd;stroke-linejoin:round;stroke-miterlimit:2;">
    <g transform="matrix(3.53476,0,0,3.37283,-980.918,-1500.34)">
        <path d="M391.106,534.188L391.106,528.247L390.626,528.247C386.185,528.247 384.745,526.747 384.745,522.126L384.745,495.662C384.745,494.581 386.605,494.581 387.145,495.662C391.766,503.463 402.928,522.486 405.149,526.327C405.328,526.567 406.109,528.127 407.069,526.447C409.169,522.846 420.511,503.523 425.192,495.662C425.852,494.581 427.652,494.581 427.652,495.662L427.652,522.126C427.652,526.867 426.332,528.247 421.711,528.247L421.231,528.247L421.231,533.948C431.313,534.728 440.794,536.469 449.376,538.929L449.376,528.247L448.956,528.247C444.455,528.247 443.135,526.867 443.135,522.126L443.135,485.64C443.135,480.899 444.395,479.579 448.956,479.579L449.376,479.579L449.376,470.457L423.391,470.457C423.391,470.457 410.369,495.301 406.889,501.903C406.529,502.503 405.808,502.503 405.448,501.903C402.028,495.361 389.066,470.457 389.066,470.457L362.961,470.457L362.901,479.579L363.381,479.579C367.942,479.579 369.142,480.899 369.142,485.64L369.142,522.126C369.142,526.867 367.882,528.247 363.381,528.247L362.901,528.247L362.961,539.589C371.483,536.949 381.024,535.148 391.046,534.188L391.106,534.188Z" style="fill:white;"/>
    </g>
    <g transform="matrix(3.53476,0,0,3.37283,-980.918,-1250.98)">
        <path d="M472.18,474.658C465.819,470.697 458.078,467.456 449.376,464.996C440.794,462.536 431.313,460.795 421.231,460.015C416.55,459.655 411.81,459.415 406.949,459.415C401.548,459.475 396.267,459.715 391.046,460.255C381.024,461.215 371.483,463.016 362.961,465.656C354.5,468.177 346.938,471.477 340.877,475.378C340.577,475.558 340.517,475.918 340.637,476.218C340.757,476.518 341.058,476.698 341.417,476.638C361.281,472.077 383.365,469.737 407.069,469.737C430.173,469.737 453.097,471.897 471.7,475.918C472,475.978 472.36,475.798 472.48,475.438C472.6,475.198 472.48,474.838 472.18,474.658" style="fill:rgb(237,172,9);"/>
    </g>
    <g transform="matrix(3.53476,0,0,3.37283,-980.918,-1687.16)">
        <path d="M412.89,513.904C412.83,513.904 412.71,513.964 412.65,514.204C412.59,517.505 407.729,525.606 407.729,525.726C407.669,525.726 403.588,533.408 403.588,533.408C399.987,539.889 402.088,544.75 405.808,551.471C405.808,551.531 405.929,551.591 405.988,551.591C406.109,551.591 406.168,551.531 406.228,551.471L416.851,531.907C420.031,525.787 417.09,520.626 414.21,515.645L413.31,514.024C413.31,514.024 413.31,513.964 413.25,513.964C413.19,513.904 413.01,513.844 412.89,513.904ZM413.13,514.204L413.13,514.265L413.13,514.204Z" style="fill:rgb(237,172,9);"/>
    </g>
    <g transform="matrix(3.53476,0,0,3.37283,-980.918,-1779.06)">
        <path d="M405.929,527.467C405.808,527.467 405.749,527.527 405.688,527.587L395.067,547.15C391.886,553.271 394.827,558.432 397.707,563.413L398.607,565.033L398.667,565.093C398.727,565.154 398.907,565.213 399.027,565.154C399.087,565.154 399.207,565.093 399.268,564.853C399.327,561.553 404.188,553.391 404.248,553.331L408.329,545.65C411.93,539.169 409.829,534.308 406.168,527.587C406.109,527.527 405.988,527.467 405.929,527.467ZM398.787,564.793L398.787,564.853L398.787,564.793Z" style="fill:rgb(246,210,119);"/>
    </g>
    <g transform="matrix(3.53476,0,0,3.37283,-980.918,-1004.05)">
        <path d="M357.2,431.45C357.2,442.852 350.839,449.393 339.977,449.393C329.115,449.393 322.694,442.852 322.694,431.45C322.694,419.988 329.115,413.507 339.977,413.507C350.839,413.507 357.2,419.988 357.2,431.45ZM330.795,431.39C330.795,440.272 334.156,444.952 339.977,444.952C345.858,444.952 349.159,440.332 349.159,431.39C349.159,422.449 345.918,417.708 339.977,417.708C334.096,417.708 330.795,422.449 330.795,431.39Z" style="fill:white;"/>
    </g>
    <g transform="matrix(3.53476,0,0,3.37283,-980.918,-1004.05)">
        <path d="M370.763,414.287L382.645,439.672C382.645,439.672 382.885,440.212 383.425,440.032C383.905,439.912 383.905,439.372 383.905,439.372L383.785,421.609C383.785,418.548 383.125,417.288 380.184,417.288L379.524,417.288L379.524,414.287C381.924,414.347 384.265,414.408 386.665,414.408C389.126,414.408 391.526,414.347 394.046,414.287L394.046,417.288L393.326,417.288C390.506,417.288 389.786,418.548 389.786,421.609L389.786,448.613L380.244,448.613L368.242,424.489C368.242,424.489 368.002,424.009 367.522,424.129C367.042,424.249 366.982,424.729 366.982,424.729L367.222,441.232C367.222,444.293 367.882,445.673 370.763,445.673L371.483,445.673L371.483,448.613C369.022,448.493 366.622,448.493 364.221,448.493C361.821,448.493 359.421,448.493 356.96,448.613L356.96,445.673L357.62,445.673C360.501,445.673 361.281,444.293 361.281,441.232L361.281,421.609C361.281,418.548 360.501,417.288 357.62,417.288L356.96,417.288L356.96,414.287L370.763,414.287Z" style="fill:white;"/>
    </g>
    <g transform="matrix(3.53476,0,0,3.37283,-980.918,-1004.05)">
        <path d="M406.168,414.408L415.59,414.408C416.79,414.408 420.391,414.287 426.332,414.287L426.332,424.669L422.672,424.669L422.672,423.769C422.672,419.328 421.411,418.428 417.271,418.428L414.81,418.428L414.81,441.232C414.81,444.293 415.53,445.673 418.411,445.673L419.611,445.673L419.611,448.613C416.73,448.493 413.85,448.493 411.089,448.493C408.209,448.493 405.388,448.493 402.508,448.613L402.508,445.673L403.708,445.673C406.529,445.673 407.249,444.293 407.249,441.232L407.249,418.428L404.248,418.428C400.468,418.428 399.207,419.448 399.207,423.229C399.207,423.649 399.207,424.129 399.268,424.669L395.727,424.669L395.727,414.287C401.548,414.287 405.028,414.408 406.168,414.408" style="fill:white;"/>
    </g>
    <g transform="matrix(3.53476,0,0,3.37283,-980.918,-1004.05)">
        <path d="M490.303,414.408C487.903,414.408 485.562,414.347 483.162,414.287L483.162,417.288L483.822,417.288C486.763,417.288 487.423,418.548 487.423,421.609L487.543,439.372C487.543,439.372 487.543,439.912 487.062,440.032C486.522,440.212 486.282,439.672 486.282,439.672L474.4,414.287L460.598,414.287L460.598,417.288L461.258,417.288C464.139,417.288 464.919,418.548 464.919,421.609L464.919,441.232C464.919,444.293 464.139,445.673 461.258,445.673C458.558,445.373 457.777,443.392 456.577,440.212L446.615,414.287L437.434,414.287L427.112,440.392C425.732,443.812 424.652,445.553 422.431,445.673L422.431,448.613C424.772,448.493 427.172,448.493 429.693,448.493C432.213,448.493 434.793,448.493 437.434,448.613L437.434,445.673C434.433,445.493 433.293,445.193 433.293,443.212C433.293,442.552 433.473,441.952 433.713,441.292L434.854,437.751L447.936,437.751L449.016,440.572C449.376,441.772 449.556,442.612 449.556,443.152C449.556,444.953 448.296,445.553 445.295,445.673L445.295,448.613C446.556,448.553 454.597,448.433 459.698,448.433C465.099,448.433 474.4,448.613 475.061,448.613L475.061,445.673L474.4,445.673C471.52,445.673 470.86,444.293 470.86,441.232L470.74,424.729C470.74,424.729 470.8,424.249 471.28,424.129C471.76,424.009 472,424.489 472,424.489L483.882,448.613L493.424,448.613L493.424,421.609C493.424,418.548 494.144,417.288 496.964,417.288L497.624,417.288L497.624,414.287C495.164,414.347 492.763,414.408 490.303,414.408ZM436.414,433.431L441.035,420.288C441.035,420.288 441.155,419.868 441.635,419.868C442.115,419.868 442.235,420.288 442.235,420.288L446.556,433.491L436.414,433.431Z" style="fill:white;"/>
    </g>
    <g transform="matrix(3.53476,0,0,3.37283,-980.918,-1004.05)">
        <path d="M519.768,414.287L529.67,440.212C530.93,443.392 531.71,445.373 534.411,445.673L534.411,448.613C531.77,448.493 529.07,448.493 526.429,448.493C523.729,448.493 521.149,448.493 518.448,448.613L518.448,445.673C521.448,445.553 522.709,444.953 522.709,443.152C522.709,442.612 522.529,441.772 522.109,440.572L521.208,437.691L508.006,437.691L506.866,441.292C506.626,441.952 506.446,442.552 506.446,443.212C506.446,445.193 507.586,445.493 510.526,445.673L510.526,448.613C507.886,448.493 505.306,448.493 502.785,448.493C500.265,448.493 497.864,448.493 495.524,448.613L495.524,445.673C497.804,445.553 498.885,443.812 500.265,440.392L510.587,414.287L519.768,414.287ZM514.127,420.288L509.446,433.491L519.648,433.491L515.387,420.288C515.387,420.288 515.267,419.868 514.787,419.868C514.307,419.868 514.127,420.288 514.127,420.288" style="fill:white;"/>
    </g>
    <g transform="matrix(3.53476,0,0,3.37283,-980.918,-1004.05)">
        <path d="M300.31,443.272C299.77,443.272 299.47,442.672 299.47,442.672L290.169,425.569C290.169,425.569 289.689,424.729 289.268,424.729C288.668,424.729 288.668,425.569 288.668,425.569L288.668,441.232C288.668,444.352 289.388,445.673 292.269,445.673L292.929,445.673L292.929,448.613C290.649,448.553 288.188,448.553 285.728,448.553C283.327,448.553 280.807,448.553 278.226,448.613L278.226,445.673L278.947,445.673C281.827,445.673 282.427,444.352 282.487,441.232L282.848,421.669L282.848,421.369C282.848,418.548 282.007,417.288 279.187,417.288L278.527,417.288L278.527,414.347C281.047,414.408 283.568,414.408 286.148,414.408C288.668,414.408 290.109,414.408 292.629,414.347L299.71,430.19C299.71,430.19 299.83,430.55 300.31,430.55C300.79,430.55 300.91,430.19 300.91,430.19L308.532,414.287C310.692,414.347 311.953,414.408 314.413,414.408C316.873,414.408 319.453,414.347 322.214,414.287L322.214,417.288L321.494,417.288C318.673,417.288 317.893,418.428 317.893,421.308L317.893,421.609L318.193,441.232C318.253,444.293 318.853,445.673 321.794,445.673L322.454,445.673L322.454,448.613C319.874,448.493 317.353,448.493 314.893,448.493C312.432,448.493 310.032,448.493 307.632,448.613L307.632,445.673L308.352,445.673C311.232,445.673 311.953,444.293 311.953,441.232L311.953,425.389C311.953,425.389 312.012,424.549 311.412,424.549C310.932,424.549 310.512,425.389 310.512,425.389L301.09,442.612C301.09,442.612 300.79,443.272 300.31,443.272Z" style="fill:white;"/>
    </g>
    <g transform="matrix(3.53476,0,0,3.37283,-980.918,-755.9)">
        <path d="M319.214,385.362L324.615,399.405C325.275,401.145 325.695,402.225 327.135,402.345L327.135,403.966C325.695,403.906 324.255,403.906 322.814,403.906C321.374,403.906 319.934,403.906 318.493,403.966L318.493,402.345C320.174,402.285 320.834,401.985 320.834,400.965C320.834,400.725 320.714,400.245 320.534,399.585L319.814,397.605L313.032,397.605L312.252,400.005C312.133,400.365 312.012,400.665 312.012,401.025C312.012,402.105 312.612,402.285 314.233,402.345L314.233,403.966C312.792,403.906 311.412,403.906 310.032,403.906C308.712,403.906 307.391,403.906 306.311,403.966L306.311,402.345C307.331,402.285 307.931,401.325 308.652,399.525L314.293,385.362L319.214,385.362ZM316.213,388.603L313.753,395.384L319.034,395.384L316.873,388.603C316.873,388.603 316.753,388.423 316.513,388.423C316.273,388.423 316.213,388.603 316.213,388.603Z" style="fill:white;"/>
    </g>
    <g transform="matrix(3.53476,0,0,3.37283,-980.918,-756.709)">
        <path d="M291.129,391.063L289.088,391.063L289.088,390.463C289.088,388.183 287.708,387.163 285.188,387.163C283.027,387.163 281.647,388.243 281.647,389.863C281.647,391.123 282.427,391.843 283.988,392.503L287.828,394.064C290.469,395.084 291.729,396.704 291.729,398.924C291.729,402.465 289.148,404.446 284.228,404.446C282.067,404.446 279.847,404.205 277.566,403.665L277.566,398.445L279.787,398.445L279.787,398.865C279.787,401.265 281.227,402.465 284.048,402.465C286.268,402.465 287.528,401.445 287.528,399.645C287.528,398.384 286.868,397.724 285.428,397.064L281.887,395.564C278.947,394.304 277.506,392.924 277.506,390.523C277.506,387.222 280.087,385.122 284.828,385.122C286.748,385.122 288.908,385.422 291.129,385.962L291.129,391.063Z" style="fill:white;"/>
    </g>
    <g transform="matrix(3.53476,0,0,3.37283,-980.918,-754.888)">
        <path d="M488.323,390.823L486.282,390.823C486.342,390.643 486.342,390.403 486.342,390.223C486.342,388.003 484.962,386.983 482.502,386.983C480.401,386.983 479.081,388.063 479.081,389.623C479.081,390.943 479.801,391.664 481.362,392.264L485.082,393.764C487.663,394.844 488.923,396.404 488.923,398.625C488.923,402.045 486.342,404.025 481.602,404.025C479.501,404.025 477.281,403.786 475.061,403.245L475.061,398.145L477.221,398.145L477.221,398.565C477.221,400.905 478.601,402.105 481.362,402.105C483.582,402.105 484.782,401.085 484.782,399.345C484.782,398.024 484.182,397.364 482.742,396.764L479.261,395.264C476.381,394.004 475,392.684 475,390.283C475,387.043 477.521,385.002 482.142,385.002C484.062,385.002 486.102,385.302 488.323,385.782L488.323,390.823Z" style="fill:white;"/>
    </g>
    <g transform="matrix(3.53476,0,0,3.37283,-980.918,-755.293)">
        <path d="M297.79,385.423L302.891,385.423C303.551,385.423 305.471,385.362 308.652,385.362L308.652,390.643L306.672,390.643L306.672,390.463C306.672,388.063 306.011,387.583 303.791,387.583L302.471,387.583L302.471,399.825C302.471,401.445 302.891,402.165 304.391,402.165L304.811,402.165L304.811,403.786C303.491,403.726 301.991,403.726 300.49,403.726C298.93,403.726 297.37,403.726 295.87,403.786L295.87,402.165L296.47,402.165C298.03,402.165 298.45,401.445 298.45,399.825L298.45,387.583L296.77,387.583C294.789,387.583 294.069,388.123 294.069,390.163C294.069,390.403 294.069,390.643 294.129,390.643L292.209,390.643L292.209,385.362C295.33,385.362 297.19,385.423 297.79,385.423Z" style="fill:white;"/>
    </g>
    <g transform="matrix(3.53476,0,0,3.37283,-980.918,-755.293)">
        <path d="M330.375,385.423L335.416,385.423C336.076,385.423 337.997,385.362 341.177,385.362L341.177,390.643L339.197,390.643L339.197,390.463C339.197,388.063 338.537,387.583 336.316,387.583L334.996,387.583L334.996,399.825C334.996,401.445 335.416,402.165 336.917,402.165L337.577,402.165L337.577,403.786C336.017,403.726 334.516,403.726 333.016,403.726C331.456,403.726 330.256,403.726 328.755,403.786L328.755,402.165L329.055,402.165C330.556,402.165 330.975,401.445 330.975,399.825L330.975,387.583L329.355,387.583C327.315,387.583 326.655,388.123 326.655,390.163L326.655,390.643L324.795,390.643L324.795,385.362C327.915,385.362 329.775,385.423 330.375,385.423" style="fill:white;"/>
    </g>
    <g transform="matrix(3.53476,0,0,3.37283,-980.918,-755.091)">
        <path d="M357.02,385.362L357.02,390.463L355.34,390.463L355.34,389.623C355.34,387.883 354.32,387.523 352.099,387.523L348.439,387.523L348.439,393.284L349.459,393.284C351.439,393.284 351.979,392.924 351.979,390.883L353.6,390.883L353.6,397.544L351.979,397.544C351.919,395.564 351.439,395.204 349.579,395.204L348.439,395.204L348.439,401.565L351.799,401.565C354.8,401.565 355.46,401.145 355.52,397.965L357.2,397.965L357.2,403.725L342.138,403.725L342.138,402.105L342.497,402.105C344.118,402.105 344.418,401.325 344.418,399.765L344.418,389.263C344.418,387.583 343.998,386.922 342.497,386.922L342.138,386.922L342.138,385.362L357.02,385.362Z" style="fill:white;"/>
    </g>
    <g transform="matrix(3.53476,0,0,3.37283,-980.918,-753.876)">
        <path d="M371.603,385.002C372.983,385.002 374.363,385.002 375.623,384.942L375.623,386.562L375.263,386.562C373.643,386.562 373.283,387.163 373.283,388.903L373.283,396.944C373.283,399.825 374.243,401.205 377.063,401.205C379.824,401.205 380.964,399.825 380.964,396.884L380.964,388.903C380.964,387.223 380.544,386.562 379.044,386.562L378.684,386.562L378.684,384.942C379.944,385.002 381.204,385.002 382.405,385.002C383.665,385.002 384.865,385.002 386.065,384.942L386.065,386.562L385.645,386.562C384.565,386.562 384.145,387.283 384.145,388.903L384.145,396.645C384.145,401.565 382.045,403.786 376.763,403.786C371.783,403.786 369.382,401.625 369.382,397.364L369.382,388.903C369.382,387.343 369.082,386.562 367.882,386.562L367.522,386.562L367.522,384.942C368.902,385.002 370.282,385.002 371.603,385.002Z" style="fill:white;"/>
    </g>
    <g transform="matrix(3.53476,0,0,3.37283,-980.918,-755.293)">
        <path d="M413.37,385.423C414.75,385.423 416.19,385.423 417.631,385.362L417.631,386.983L417.271,386.983C415.77,386.983 415.35,387.643 415.35,389.323L415.35,399.825C415.35,401.445 415.77,402.165 417.271,402.165L417.631,402.165L417.631,403.786C416.19,403.726 414.75,403.726 413.37,403.726C411.93,403.726 410.489,403.726 409.049,403.786L409.049,402.165L409.409,402.165C410.909,402.165 411.33,401.445 411.33,399.825L411.33,389.323C411.33,387.643 410.909,386.983 409.409,386.983L409.049,386.983L409.049,385.362C410.489,385.423 411.93,385.423 413.37,385.423Z" style="fill:white;"/>
    </g>
    <g transform="matrix(3.53476,0,0,3.37283,-980.918,-754.685)">
        <path d="M437.794,386.743L437.794,385.122C436.714,385.182 435.513,385.182 434.313,385.182C433.053,385.182 431.733,385.182 430.293,385.122L430.293,386.743C431.733,386.743 432.453,387.042 432.453,387.823C432.453,388.003 432.393,388.303 432.333,388.603L428.732,399.285C428.732,399.285 428.672,399.525 428.432,399.525C428.193,399.525 428.072,399.285 428.072,399.285L424.352,388.543C424.292,388.183 424.172,387.943 424.172,387.703C424.172,386.862 424.832,386.802 426.392,386.743L426.392,385.122C424.712,385.182 423.211,385.182 421.891,385.182C420.631,385.182 419.491,385.182 418.591,385.122L418.591,386.743C419.611,386.802 420.031,387.463 420.511,388.783L426.092,403.845L430.473,403.845L435.874,388.663C436.234,387.523 436.714,386.923 437.794,386.743Z" style="fill:white;"/>
    </g>
    <g transform="matrix(3.53476,0,0,3.37283,-980.918,-755.293)">
        <path d="M463.899,385.362C469.18,385.362 471.64,386.683 471.64,390.343C471.64,392.564 470.5,394.064 468.399,394.544C470.08,394.784 470.5,395.684 471.04,397.545C471.52,399.405 471.7,400.785 472.24,401.385C472.6,401.805 472.96,401.985 473.5,402.106L473.5,403.786L468.82,403.786C467.679,401.205 467.619,398.925 467.019,397.304C466.599,396.104 465.699,395.624 464.018,395.624L462.578,395.624L462.578,399.825C462.578,401.445 462.998,402.165 464.499,402.165L464.919,402.165L464.919,403.786C463.478,403.726 462.038,403.726 460.598,403.726C459.158,403.726 457.717,403.726 456.277,403.786L456.277,402.165L456.637,402.165C458.198,402.165 458.558,401.445 458.558,399.825L458.558,389.323C458.558,387.643 458.198,386.983 456.637,386.983L456.277,386.983L456.277,385.362L463.899,385.362ZM462.578,393.704L463.959,393.704C466.599,393.704 467.799,392.924 467.799,390.703C467.799,388.423 466.659,387.583 464.139,387.583L462.578,387.583L462.578,393.704Z" style="fill:white;"/>
    </g>
    <g transform="matrix(3.53476,0,0,3.37283,-980.918,-755.293)">
        <path d="M494.804,385.423C496.184,385.423 497.624,385.423 499.065,385.362L499.065,386.983L498.705,386.983C497.144,386.983 496.784,387.643 496.784,389.323L496.784,399.825C496.784,401.445 497.144,402.165 498.705,402.165L499.065,402.165L499.065,403.786C497.624,403.726 496.184,403.726 494.804,403.726C493.364,403.726 491.923,403.726 490.483,403.786L490.483,402.165L490.843,402.165C492.343,402.165 492.763,401.445 492.763,399.825L492.763,389.323C492.763,387.643 492.343,386.983 490.843,386.983L490.483,386.983L490.483,385.362C491.923,385.423 493.364,385.423 494.804,385.423Z" style="fill:white;"/>
    </g>
    <g transform="matrix(3.53476,0,0,3.37283,-980.918,-755.293)">
        <path d="M505.786,385.423L510.886,385.423C511.487,385.423 513.407,385.362 516.648,385.362L516.648,390.584L514.667,390.584C514.667,390.764 514.667,390.584 514.667,390.463C514.667,388.063 514.007,387.583 511.787,387.583L510.467,387.583L510.467,399.825C510.467,401.445 510.827,402.165 512.387,402.165L512.987,402.165L512.987,403.786C511.487,403.726 509.926,403.726 508.426,403.726C506.926,403.726 505.366,403.726 503.805,403.786L503.805,402.165L504.465,402.165C506.026,402.165 506.386,401.445 506.386,399.825L506.386,387.583L504.766,387.583C502.785,387.583 502.065,388.123 502.065,390.163C502.065,390.403 502.065,390.643 502.125,390.584L500.205,390.584L500.205,385.362C503.325,385.362 505.186,385.423 505.786,385.423" style="fill:white;"/>
    </g>
    <g transform="matrix(3.53476,0,0,3.37283,-980.918,-755.293)">
        <path d="M520.908,385.423C522.169,385.423 523.549,385.423 524.869,385.362L524.869,386.983L524.749,386.983C523.789,386.983 523.369,387.223 523.369,387.823C523.369,388.123 523.489,388.483 523.729,388.903L525.709,392.984C525.709,392.984 525.829,393.224 526.069,393.224C526.249,393.224 526.369,392.984 526.369,392.984L528.41,389.083C528.59,388.663 528.71,388.243 528.71,387.943C528.71,387.223 528.29,386.983 527.269,386.983L527.269,385.362C528.53,385.423 529.79,385.423 530.99,385.423C532.19,385.423 533.391,385.423 534.591,385.362L534.591,386.983L534.471,386.983C533.511,386.983 532.911,387.643 532.13,388.963L527.63,396.284L527.63,400.005C527.63,401.625 527.93,402.165 529.67,402.165L530.09,402.165L530.09,403.786C528.71,403.726 527.269,403.726 525.769,403.726C524.329,403.726 522.889,403.726 521.389,403.786L521.389,402.165L521.808,402.165C523.549,402.165 523.849,401.625 523.849,400.005L523.849,396.224L519.648,388.963C518.928,387.703 518.328,387.043 517.068,386.983L517.068,385.362C518.328,385.423 519.588,385.423 520.908,385.423" style="fill:white;"/>
    </g>
    <g transform="matrix(3.53476,0,0,3.37283,-980.918,-754.483)">
        <path d="M394.767,385.182L401.188,398.865C401.188,398.865 401.308,399.165 401.608,399.105C401.848,399.045 401.848,398.745 401.848,398.745L401.788,389.143C401.788,387.463 401.428,386.742 399.808,386.742L399.448,386.742L399.448,385.182C400.768,385.182 402.028,385.242 403.348,385.242C404.668,385.242 405.988,385.182 407.309,385.182L407.309,386.742L406.949,386.742C405.388,386.742 405.028,387.463 405.028,389.143L405.028,403.725L399.868,403.725L393.446,390.043C393.446,390.043 393.326,389.803 393.026,389.863C392.786,389.923 392.726,390.163 392.726,390.163L392.786,399.705C392.786,401.385 393.146,402.105 394.767,402.105L395.127,402.105L395.127,403.725C393.807,403.666 392.486,403.666 391.226,403.666C389.906,403.666 388.585,403.666 387.265,403.725L387.265,402.105L387.625,402.105C389.186,402.105 389.606,401.385 389.606,399.705L389.606,389.143C389.606,387.463 389.186,386.742 387.625,386.742L387.265,386.742L387.265,385.182L394.767,385.182Z" style="fill:white;"/>
    </g>
    <g transform="matrix(3.53476,0,0,3.37283,-980.918,-755.091)">
        <path d="M453.577,385.362L453.577,390.463L451.837,390.463L451.837,389.623C451.837,387.883 450.876,387.523 448.656,387.523L444.935,387.523L444.935,393.284L446.015,393.284C447.996,393.284 448.476,392.924 448.536,390.883L450.156,390.883L450.156,397.544L448.536,397.544C448.416,395.564 447.996,395.204 446.135,395.204L444.935,395.204L444.935,401.565L448.296,401.565C451.296,401.565 451.956,401.145 452.017,397.965L453.697,397.965L453.697,403.725L438.634,403.725L438.634,402.105L438.994,402.105C440.615,402.105 440.915,401.325 440.915,399.765L440.915,389.263C440.915,387.583 440.554,386.922 438.994,386.922L438.634,386.922L438.634,385.362L453.577,385.362Z" style="fill:white;"/>
    </g>
</svg>
