<?xml version="1.0" encoding="UTF-8" standalone="no"?>
<!DOCTYPE svg PUBLIC "-//W3C//DTD SVG 1.1//EN" "http://www.w3.org/Graphics/SVG/1.1/DTD/svg11.dtd">
<svg width="100%" height="100%" viewBox="0 0 1912 592" version="1.1" xmlns="http://www.w3.org/2000/svg" xmlns:xlink="http://www.w3.org/1999/xlink" xml:space="preserve" xmlns:serif="http://www.serif.com/" style="fill-rule:evenodd;clip-rule:evenodd;stroke-linejoin:round;stroke-miterlimit:2;">
    <g transform="matrix(1,0,0,1,-200.942,-1292.22)">
        <path d="M641.013,1536.51L209.533,1536.51L209.533,1651.3L243.109,1722.33L304.185,1785.14L424.844,1856.71L552.426,1778.19L605.849,1722.1L641.013,1651.3L641.013,1536.51Z" style="fill:white;"/>
    </g>
    <g id="path1" transform="matrix(1.02194,0,0,1.03896,-210.895,-244.783)">
        <path d="M350.966,243.918C283.244,244.393 228.786,246.396 221.039,248.696C218.671,249.399 216.057,251.662 214.901,254.01L214.024,255.79L213.781,316.432C213.648,349.784 213.426,400.4 213.29,428.91L213.04,480.746L219.682,480.503C308.022,477.271 534.191,477.156 622.198,480.299C628.522,480.525 633.779,480.626 633.88,480.525C634.468,479.939 632.971,256.121 632.371,254.738C631.453,252.621 629.027,250.195 626.924,249.291C617.757,245.348 493.134,242.921 350.966,243.918" style="fill:rgb(227,28,19);"/>
    </g>
    <g id="path11" serif:id="path1" transform="matrix(0.964364,0,0,0.964364,-185.846,-218.399)">
        <path d="M427.623,303.209C430.353,304.02 432.375,306.021 435.138,310.652L437.454,314.531L451,314.642C466.133,314.765 465.526,314.659 467.492,317.547C469.235,320.11 468.931,321.425 463.319,335.613L459.81,344.486L462.353,347.372C465.148,350.543 466.764,351.961 472.063,355.886C482.217,363.408 484.218,369.63 479.564,379.211C471.613,395.573 468.774,400.264 464.079,404.785C454.289,414.215 449.508,417.344 442.483,418.921C440.177,419.439 436.385,420.44 434.055,421.144C424.825,423.935 423.362,423.935 413.287,421.148C410.003,420.24 405.81,419.145 403.971,418.714C397.903,417.296 394.286,414.955 384.64,406.21C379.701,401.732 378.066,399.474 374.063,391.602C372.337,388.209 370.016,383.72 368.905,381.626C362.728,369.992 364.25,364.148 375.696,355.541C380.67,351.8 383.536,349.185 386.122,346.029L387.403,344.466L383.255,333.806C378.613,321.883 378.282,320.448 379.582,317.924C381.271,314.646 381.678,314.567 396.853,314.559L409.928,314.551L411.385,312.04C416.523,303.173 420.401,301.064 427.623,303.209" style="fill:rgb(255,228,0);"/>
    </g>
    <g id="path12" serif:id="path1" transform="matrix(0.957452,0,0,0.957452,-188.474,-215.822)">
        <path d="M298.156,305.299C300.645,306.368 303.97,310.477 306.018,315.011L306.471,316.015L319.763,316.131C340.519,316.309 340.842,316.774 333.327,335.631L329.17,346.061L330.787,347.946C333.385,350.975 336.607,353.99 339.599,356.191C346.55,361.305 348.357,363.197 350.259,367.351C352.562,372.38 351.774,375.422 344.545,389.429C338.29,401.55 337.036,403.358 331.383,408.404C321.696,417.055 318.953,418.836 313.215,420.207C311.401,420.64 307.817,421.588 305.251,422.315C293.673,425.589 292.337,425.629 283.234,422.956C280.668,422.203 276.89,421.201 274.838,420.73C267.872,419.131 265.317,417.737 258.417,411.774C248.458,403.166 247.53,401.828 237.088,380.986C232.262,371.355 234.505,364.943 245.542,356.809C249.415,353.956 254.916,348.813 256.226,346.822C256.68,346.132 256.307,344.959 252.614,335.464C245.232,316.489 245.547,316.068 267.112,316.047L279.316,316.034L281.555,312.287C286.164,304.575 291.37,302.384 298.156,305.299" style="fill:rgb(255,228,0);"/>
    </g>
    <g id="path13" serif:id="path1" transform="matrix(0.924657,0,0,0.924657,-159.232,-203.861)">
        <path d="M557.805,304.934C560.156,305.528 562.269,307.646 564.946,312.094L567.331,316.058L579.5,316.075C594.759,316.095 595.774,316.28 597.584,319.37C599.009,321.803 598.609,323.609 594.107,335.104C591.841,340.889 589.989,345.819 589.989,346.059C589.989,347.079 596.334,353.237 601.035,356.778C612.503,365.414 614.414,371.121 609.268,381.365C598.575,402.651 598.478,402.794 589.312,410.782C581.205,417.848 579.007,419.093 571.702,420.757C569.547,421.249 565.852,422.218 563.492,422.913C554.722,425.493 552.728,425.532 545.057,423.276C542.574,422.547 538.527,421.48 536.064,420.906C528.09,419.049 526.12,417.951 517.893,410.782C508.74,402.805 508.253,402.088 497.925,381.365C492.793,371.068 494.731,365.312 506.22,356.726C510.701,353.378 517.218,347.098 517.218,346.129C517.218,345.926 515.357,340.969 513.082,335.113C508.57,323.501 508.196,321.806 509.612,319.387C511.434,316.277 512.43,316.095 527.714,316.075L539.89,316.058L542.037,312.461C546.623,304.775 550.276,303.032 557.805,304.934" style="fill:rgb(255,228,0);"/>
    </g>
    <g id="path14" serif:id="path1" transform="matrix(1,0,0,1,-200.942,-231.329)">
        <path d="M383.993,371.849C383.086,372.773 382.429,373.529 382.531,373.529C382.634,373.529 383.459,372.773 384.366,371.849C385.272,370.926 385.93,370.17 385.827,370.17C385.725,370.17 384.899,370.926 383.993,371.849" style="fill:rgb(227,28,19);"/>
    </g>
    <g id="path15" serif:id="path1" transform="matrix(1,0,0,1,-200.942,-231.329)">
        <path d="M474.389,371.662C474.389,372.381 474.465,372.674 474.559,372.315C474.653,371.957 474.653,371.368 474.559,371.01C474.465,370.65 474.389,370.943 474.389,371.662" style="fill:rgb(227,28,19);"/>
    </g>
    <g id="path16" serif:id="path1" transform="matrix(1,0,0,1,-200.942,-231.329)">
        <path d="M331.934,373.155C332.945,374.181 333.855,375.021 333.958,375.021C334.061,375.021 333.318,374.181 332.307,373.155C331.296,372.129 330.385,371.289 330.283,371.289C330.18,371.289 330.923,372.129 331.934,373.155" style="fill:rgb(227,28,19);"/>
    </g>
    <g id="path17" serif:id="path1" transform="matrix(1,0,0,1,-200.942,-231.329)">
        <path d="M250.393,376.327C249.488,377.251 248.829,378.007 248.932,378.007C249.035,378.007 249.861,377.251 250.767,376.327C251.673,375.404 252.331,374.648 252.228,374.648C252.125,374.648 251.3,375.404 250.393,376.327" style="fill:rgb(227,28,19);"/>
    </g>
    <g id="path18" serif:id="path1" transform="matrix(1,0,0,1,-200.942,-231.329)">
        <path d="M468.784,377.442C470.162,378.862 471.342,379.948 471.406,379.855C471.469,379.762 470.342,378.6 468.9,377.273L466.279,374.861L468.784,377.442" style="fill:rgb(227,28,19);"/>
    </g>
    <g id="path19" serif:id="path1" transform="matrix(1,0,0,1,-200.942,-231.329)">
        <path d="M299.367,380.619C299.367,381.337 299.444,381.631 299.538,381.271C299.632,380.912 299.632,380.324 299.538,379.966C299.444,379.606 299.367,379.9 299.367,380.619" style="fill:rgb(227,28,19);"/>
    </g>
    <g id="path110" serif:id="path1" transform="matrix(1,0,0,1,-200.942,-231.329)">
        <path d="M331.727,398.811L330.441,400.211L331.84,398.924C332.61,398.217 333.24,397.587 333.24,397.525C333.24,397.24 332.924,397.509 331.727,398.811" style="fill:rgb(227,28,19);"/>
    </g>
    <g id="path111" serif:id="path1" transform="matrix(1,0,0,1,-200.942,-231.329)">
        <path d="M407.904,559.031C394.149,561.73 381.96,574.699 384.888,583.516C385.885,586.518 386.992,587.281 392.454,588.735C403.343,591.63 409.368,595.07 409.368,598.39C409.368,603.73 402.073,603.181 388.35,596.809C379.192,592.557 374.032,599.158 376.297,612.228C379.514,630.796 391.028,640.676 397.839,630.713C406.172,618.526 412.119,613.937 415.368,617.187C417.943,619.761 414.629,626.293 406.324,635.012C398.42,643.312 406.655,651.611 423.363,652.184C439.827,652.748 448.05,644.308 440.161,634.942C434.227,627.894 430.211,620.423 431.055,618.001C433.028,612.345 441.544,618.035 449.821,630.539C456.254,640.258 467.423,631.875 470.923,614.701C473.893,600.129 468.362,592.146 458.601,596.917C448.103,602.049 441.366,603.369 438.794,600.797C435.043,597.045 441.9,592.008 455.345,588.638C461.791,587.023 463.871,584.138 462.708,578.426C459.368,562.032 427.141,550.732 428.06,566.276C428.992,582.035 427.633,588.853 423.559,588.853C419.551,588.853 418.129,581.877 419.213,567.533L419.541,563.191L417.953,561.469C415.6,558.917 412.421,558.145 407.904,559.031" style="fill:rgb(227,28,19);"/>
    </g>
    <g id="path112" serif:id="path1" transform="matrix(1,0,0,1,-200.942,-231.329)">
        <path d="M427.294,592.633C434.53,594.8 437.202,604.836 432.092,610.643C425.367,618.283 412.384,613.697 412.232,603.627C412.109,595.515 419.327,590.246 427.294,592.633" style="fill:rgb(227,28,19);"/>
    </g>
    <g id="path2" transform="matrix(1.11954,0,0,1.11954,-0.181667,0.390528)">
        <path d="M119.833,0.227C73.209,0.696 30.592,2.222 19.107,3.834C10.204,5.084 3.144,10.856 1.342,18.359C0.533,21.726 -0.306,300.982 0.471,308.267C5.342,353.941 30.397,395.649 73.667,430.11C109.936,458.996 152.481,486.721 186.887,503.892C200.4,510.635 197.868,510.583 210.185,504.376C244.854,486.906 291.671,456.284 326.5,428.298C368.785,394.32 393.471,352.771 397.872,308.167C398.396,302.849 398.39,293.754 397.77,160.667L397.11,18.833L396.393,16.643C394.462,10.739 389.14,5.951 382.906,4.505C368.866,1.249 234.869,-0.93 119.833,0.227M295.5,11.296C347.001,12.501 376.301,13.897 380.065,15.327C382.311,16.181 384.046,17.672 385.184,19.725L386.167,21.5L386.373,61.333C386.486,83.242 386.694,128.504 386.834,161.917L387.089,222.668L386.128,222.51C383.73,222.116 343.812,221.159 306.667,220.605C270.915,220.072 129.215,220.074 93.833,220.608C54.161,221.207 18.161,222.047 12.881,222.497L10.929,222.664L11.175,158.249C11.31,122.82 11.515,77.483 11.629,57.5L11.836,21.167L12.572,19.789C14.261,16.625 16.509,15.232 21.062,14.528C31.294,12.946 63.757,11.684 111.667,11.006C137.391,10.642 276.95,10.862 295.5,11.296M196.634,63.654C193.396,64.237 191.839,65.635 188.914,70.583L186.894,74L175.761,74C156.736,74 156.517,74.301 163.168,91.367C165.104,96.337 166.608,100.66 166.509,100.972C166.137,102.145 160.361,107.683 156.667,110.408C146.956,117.573 144.96,123.15 149.101,131.549C158.329,150.269 160.332,153.018 170.932,161.509C175.48,165.154 176.617,165.688 183.676,167.502C186.879,168.326 191.225,169.463 193.333,170.028C198.342,171.373 201.038,171.266 207,169.486C209.292,168.802 212.985,167.825 215.207,167.315C222.421,165.661 226.495,163.007 236.104,153.699C239.269,150.633 248.923,133.308 250.512,127.842C252.33,121.587 249.843,116.567 242.075,110.811C237.936,107.745 235.652,105.688 232.967,102.614L231.32,100.727L235.05,91.28C241.691,74.464 241.522,74.219 223.138,74.068L211.109,73.969L210.521,72.735C206.971,65.284 202.785,62.547 196.634,63.654M78.998,65.311C76.102,66.192 73.158,69.485 70.75,74.535L70.221,75.644L57.968,75.738C44.262,75.845 44.693,75.769 43.183,78.347C41.943,80.464 42.274,81.971 46.18,92.002C48.143,97.043 49.823,101.43 49.914,101.752C50.249,102.94 44.047,109.098 39.167,112.425C30.436,118.375 28.421,124.905 32.664,133.5C41.843,152.094 42.75,153.385 52.239,161.336C58.447,166.539 60.21,167.449 67,168.957C68.558,169.303 71.69,170.131 73.96,170.797C81.685,173.063 82.971,173.062 90.816,170.776C93.025,170.133 96.408,169.244 98.333,168.802C104.909,167.291 106.307,166.568 112.167,161.647C120.553,154.604 122.581,152.17 126.334,144.643C127.47,142.364 129.352,138.775 130.516,136.667C136.849,125.191 135.415,119.335 124.351,111.495C121.486,109.465 117.209,105.474 115.567,103.297L114.659,102.094L118.351,92.668C122.476,82.135 122.788,80.816 121.69,78.548C120.323,75.724 120.021,75.667 106.43,75.667L94.738,75.667L92.619,72.086C88.871,65.751 84.575,63.615 78.998,65.311M311.295,65.46C308.733,66.376 306.268,69.233 303.7,74.269L302.986,75.667L291.127,75.667C272.806,75.667 272.592,75.974 279.225,92.833L282.896,102.167L281.653,103.667C279.205,106.62 276.813,108.801 272.431,112.076C260.027,121.346 260.169,125.317 273.774,149.5C277.889,156.813 290.306,166.69 297.5,168.371C299.15,168.757 302.825,169.722 305.667,170.516C315.063,173.141 315.358,173.141 324.667,170.525C327.508,169.727 331.183,168.759 332.833,168.375C339.809,166.751 352.229,156.959 356.372,149.818C370.375,125.682 370.384,121.269 356.457,111.011C353.968,109.177 350.278,105.655 348.216,103.144L347.377,102.122L348.64,98.978C355.469,81.979 355.933,80.188 354.134,77.779C352.581,75.699 352.353,75.667 339.275,75.667L327.372,75.667L326.342,73.75C322.07,65.808 317.447,63.261 311.295,65.46M201.483,70.125C201.893,70.394 203.804,72.988 205.729,75.89C218.517,95.169 230.162,109.526 237.416,114.954C244.789,120.472 246.143,123.816 243.345,129.601C242.619,131.104 241.935,132.333 241.826,132.333C241.717,132.333 238.299,129.169 234.231,125.301C218.054,109.921 218.335,112.565 235.098,133.445L239.068,138.391L238.325,140.445C237.121,143.772 236.12,145.507 234.237,147.53L232.464,149.435L229.844,145.301C213.02,118.757 210.571,118.159 223.036,143.639C228.359,154.52 228.242,152.959 224,156.491C221.265,158.769 220.156,159.42 217.391,160.371C215.128,161.149 215.803,162.476 212.344,150.459C204.601,123.56 203.706,123.737 206.835,151.549C207.471,157.205 207.994,162.072 207.996,162.364C207.999,162.739 207.442,163.016 206.083,163.313C205.029,163.543 203.077,164.048 201.746,164.434L199.325,165.136L194.811,164.007C192.328,163.385 190.246,162.792 190.184,162.689C190.121,162.585 190.492,158.9 191.006,154.5C192.829,138.915 193.444,130 192.696,130C192.01,130 188.371,141.17 184.496,155.167C183.633,158.283 182.893,160.871 182.851,160.918C182.225,161.617 176.483,158.472 173.182,155.621L170.39,153.211L172.675,148.651C179.128,135.769 183.739,125.287 183.188,124.751C182.539,124.12 176.818,131.947 169.667,143.248L165.833,149.306L164.224,147.736C162.282,145.842 161.363,144.338 160.034,140.875L159.026,138.249L161.453,135.375C169.087,126.335 176.502,116.057 175.856,115.412C175.275,114.83 170.135,119.21 161.942,127.267C156.131,132.983 156.45,132.877 154.809,129.618C152.046,124.132 153.547,120.438 160.786,114.914C164.591,112.011 167.635,109.178 170.008,106.333C175.22,100.086 186.347,85.017 192.283,76.169C194.373,73.053 196.327,70.334 196.625,70.126C197.882,69.246 200.142,69.246 201.483,70.125M84.478,71.384C84.942,71.595 85.956,72.758 86.731,73.967C91.045,80.697 103.456,97.789 109.507,105.333C112.893,109.554 117.087,113.74 120.169,115.974C127.858,121.548 129.51,125.537 126.53,131.338C125.825,132.711 125.194,133.894 125.127,133.969C125.061,134.044 122.415,131.569 119.249,128.469C106.711,116.197 102.687,113.512 107.587,120.688C110.689,125.231 119.026,135.995 121.434,138.568L122.434,139.636L121.68,141.734C120.28,145.629 116.236,151.529 115.572,150.647C115.511,150.566 114.428,148.85 113.164,146.833C107.521,137.824 100.661,127.955 99.051,126.532C96.925,124.651 99.054,130.087 105.892,144L111.052,154.5L108.779,156.622C105.79,159.414 104.142,160.518 101.453,161.53C98.748,162.548 98.532,162.479 98.025,160.445C94.818,147.568 89.33,130.87 88.558,131.642C88.068,132.132 88.673,140.347 90.176,153.626C90.827,159.378 91.298,164.146 91.223,164.221C90.953,164.492 83.24,166.333 82.381,166.332C81.609,166.332 73.689,164.467 73.452,164.23C73.403,164.18 73.803,160.321 74.341,155.653C76.324,138.452 76.819,130.683 75.866,131.679C74.869,132.721 71.34,143.683 67.436,157.868L66.191,162.388L65.179,162.186C62.413,161.634 58.782,159.345 54.938,155.729L53.71,154.573L56.399,149.203C61.715,138.587 65.909,129.337 66.52,126.881C67.383,123.411 60.55,132.656 50.482,148.58C48.893,151.094 49.11,151.078 47.057,148.833C45.361,146.977 44.092,144.674 42.973,141.423L42.36,139.639L43.456,138.403C49.668,131.394 59.849,117.405 59.206,116.762C58.673,116.229 53.529,120.626 44.94,128.956L39.714,134.026L38.546,131.93C35.141,125.819 36.271,122.471 43.667,116.746C48.386,113.093 50.877,110.69 54.29,106.5C60.435,98.954 71.277,84.177 76.481,76.254C79.945,70.979 81.505,70.029 84.478,71.384M317.314,71.49C317.834,71.759 318.9,72.997 319.682,74.24C321.851,77.687 328.252,86.762 333.62,94C343.905,107.867 347.62,112.067 353.333,116.287C360.809,121.808 362.266,125.495 359.277,131.325L357.888,134.035L356.027,132.236C339.076,115.853 335.192,113.012 340.54,120.908C342.901,124.395 347.706,130.684 352.278,136.273L355.092,139.713L354.676,141.107C353.94,143.573 352.464,146.454 351.014,148.256C348.576,151.285 348.951,151.514 344.167,144.066C328.402,119.516 327.03,120.383 339.914,146.757L343.784,154.68L341.841,156.424C338.709,159.232 336.781,160.576 334.844,161.301C331.341,162.611 331.435,162.628 330.873,160.615C325.226,140.383 322.106,130.783 321.407,131.482C320.843,132.046 321.811,144.286 323.602,159.221L324.208,164.275L320.687,165.2C315.153,166.653 305.717,165.573 306.165,163.538C306.637,161.398 308.661,141.878 309.142,134.833C309.665,127.168 307.559,132.176 301.791,152.316C300.245,157.714 298.919,162.192 298.845,162.266C298.659,162.452 295.432,161.375 293.961,160.637C292.688,159.998 286.667,155.066 286.667,154.662C286.667,154.532 288.666,150.318 291.109,145.296C296.089,135.063 298.891,128.711 299.185,126.989L299.383,125.833L297.597,127.688C295.916,129.433 289.26,139.065 284.185,147.095C282.041,150.487 281.874,150.664 281.232,150.238C279.792,149.282 277.543,145.927 276.35,142.955L275.119,139.888L280.562,133.094C296.577,113.106 295.765,111.646 278.059,128.596L272.388,134.026L271.027,131.308C268.105,125.47 269.419,121.983 276.55,116.647C283.082,111.758 287.416,106.755 299.632,90.002C302.641,85.876 306.587,80.25 308.402,77.5C312.862,70.74 314.165,69.862 317.314,71.49M184,79.21C184,79.445 172.2,95.501 171.358,96.413C170.86,96.952 170.604,96.422 167.735,88.913C164.655,80.852 164.296,79.538 165.083,79.221C165.696,78.973 184,78.963 184,79.21M233.276,79.552C233.689,80.29 233.406,81.225 230.431,88.973C229.053,92.563 227.787,95.861 227.617,96.303C227.353,96.992 217.01,83.958 214.217,79.417C214.014,79.087 215.947,79 223.464,79C231.96,79 233,79.058 233.276,79.552M67.116,81.083C66.122,82.696 54.254,98.365 54.124,98.235C53.748,97.859 48.001,82.44 48.001,81.806C48,81.424 48.1,81.011 48.222,80.889C48.672,80.439 67.394,80.632 67.116,81.083M116.706,81.25C116.728,81.571 116.717,82.058 116.683,82.333C116.595,83.029 110.975,97.771 110.67,98.106C110.533,98.256 109.17,96.681 107.641,94.606C106.111,92.531 103.166,88.546 101.095,85.75L97.331,80.667L106.999,80.667C115.969,80.667 116.67,80.709 116.706,81.25M300,80.824C300,81.061 287.294,98.154 287.045,98.251C286.787,98.351 280.657,82.397 280.663,81.639C280.665,81.349 280.767,81.011 280.889,80.889C281.137,80.641 300,80.576 300,80.824M349.454,81.833C349.399,83.007 343.609,98.372 343.267,98.25C343.01,98.158 330.333,81.07 330.333,80.816C330.333,80.728 334.646,80.696 339.917,80.745L349.5,80.833L349.454,81.833M221.492,228.661C241.768,228.947 243.179,229.005 243.576,229.567C245.345,232.063 247.496,233.531 250.772,234.474C253.178,235.166 253.092,235.661 250.445,236.354C240.15,239.045 239.075,252.987 248.88,256.656C249.876,257.028 250.968,257.333 251.305,257.333C251.642,257.333 252.102,257.555 252.326,257.825C252.781,258.372 252.37,258.611 249.782,259.304C239.957,261.933 239.587,276.726 249.276,279.529C253.18,280.659 253.567,281.078 251.25,281.669C245.054,283.252 241.631,287.543 242.082,293.163C243.05,305.219 259.8,306.459 263.056,294.716C263.961,291.453 264.186,291.509 265.309,295.282C268.324,305.404 283.118,305.358 285.674,295.219C286.503,291.926 287.355,291.586 287.801,294.37C289.598,305.608 305.672,305.729 308.646,294.527C309.294,292.084 309.845,291.822 310.325,293.728C313.328,305.647 328.434,306.235 331.45,294.551C332.249,291.458 332.532,291.552 333.643,295.282C336.657,305.404 351.452,305.358 354.007,295.219C354.837,291.926 355.689,291.586 356.134,294.37C357.933,305.623 374.001,305.744 376.979,294.527C377.628,292.084 378.178,291.822 378.658,293.728C379.684,297.798 381.971,300.705 385.201,302.044L387.089,302.826L386.887,305.664C385.275,328.38 373.247,358.261 356.197,381.908C353.069,386.246 353.423,386.047 352.222,384.151C347.171,376.181 335.516,379.083 332.997,388.938C332.489,390.925 332.007,390.57 331.082,387.529C328.61,379.4 318.507,376.989 313.023,383.22C311.742,384.675 310.333,387.688 310.333,388.972C310.333,391.267 309.057,390.291 308.34,387.448C305.748,377.163 291.037,377.272 287.896,387.6C286.992,390.571 286.507,390.916 286.008,388.938C282.873,376.494 267.844,376.494 264.664,388.938C264.156,390.925 263.674,390.57 262.749,387.529C261.241,382.57 256.878,379.414 251.995,379.75C239.714,380.596 238.248,397.384 250.167,400.681C252.836,401.419 252.998,402.148 250.602,402.646C238.61,405.138 239.225,421.115 251.417,423.81C251.921,423.922 252.333,424.232 252.333,424.5C252.333,424.768 251.921,425.078 251.417,425.19C242.974,427.056 239.257,435.388 243.883,442.074C245.41,444.282 247.151,445.352 251.167,446.551C252.762,447.027 252.378,447.707 250.167,448.319C240.204,451.077 238.94,464.286 248.245,468.402C249.066,468.765 249.609,469.176 249.452,469.315C245.465,472.839 221.277,486.762 205.975,494.341L199.116,497.738L194.975,495.833C183.58,490.589 162.063,478.597 151.862,471.803L147.968,469.209L149.615,468.594C159.333,464.969 158.336,451.033 148.167,448.345C145.529,447.648 145.595,447.096 148.425,446.179C156.7,443.498 159.156,434.39 153.193,428.498C151.234,426.562 150.443,426.13 147.417,425.343C145.791,424.92 145.529,424.117 146.917,423.81C153.274,422.402 156.616,418.319 156.264,412.388C155.968,407.399 152.711,403.681 147.731,402.646C145.335,402.148 145.497,401.419 148.167,400.681C153.364,399.243 156.333,395.481 156.333,390.333C156.333,377.853 138.666,375.733 135.514,387.835C134.657,391.122 134.275,391.143 133.39,387.951C130.298,376.801 115.971,376.906 112.636,388.102C111.823,390.833 111.362,390.841 110.648,388.139C107.8,377.367 93.164,376.766 90.133,387.297C89.172,390.635 88.722,390.933 88.065,388.667C84.707,377.09 70.13,376.509 67.18,387.835C66.324,391.122 65.942,391.143 65.056,387.951C62.569,378.979 50.636,376.625 46.043,384.2C44.924,386.045 45.26,386.241 42.12,381.91C24.972,358.254 13.17,329.119 11.152,305.459L10.921,302.752L12.487,302.154C16.01,300.808 18.233,298.361 19.355,294.594C20.169,291.859 20.583,291.843 21.326,294.518C24.39,305.541 39.448,305.845 42.006,294.936C42.652,292.18 43.999,291.648 44,294.147C44.001,295.437 45.884,298.823 47.324,300.121C53.542,305.728 63.111,302.575 64.969,294.307C65.572,291.62 66.114,291.685 66.856,294.533C69.8,305.839 84.65,305.815 87.653,294.5C87.975,293.285 88.363,292.5 88.641,292.5C88.916,292.5 89.32,293.297 89.654,294.5C92.723,305.539 107.779,305.856 110.339,294.936C110.985,292.18 112.333,291.648 112.334,294.147C112.334,295.437 114.217,298.823 115.657,300.121C121.875,305.728 131.445,302.575 133.302,294.307C133.906,291.62 134.448,291.685 135.189,294.533C138.42,306.942 156.208,305.076 156.152,292.333C156.128,286.846 153.044,283.227 147.062,281.669C145.251,281.197 145.397,280.622 147.459,280.105C156.309,277.885 159.324,267.45 152.78,261.69C151.325,260.409 148.312,259 147.028,259C145.044,259 145.664,257.571 147.818,257.182C158.64,255.228 159.086,239.812 148.414,236.567C145.266,235.61 145.101,235.212 147.555,234.498C150.491,233.645 151.77,232.865 153.6,230.812L155.275,228.932L171.554,228.688C195.572,228.328 197.874,228.327 221.492,228.661M196.486,270.901C195.027,274.693 192.708,280.028 191.333,282.757L188.833,287.719L185.5,287.822C174.885,288.151 162.535,297.644 160.819,306.794C160.694,307.461 160.47,308.082 160.322,308.174C159.726,308.542 151.118,309.661 145,310.166C141.425,310.462 137.322,310.807 135.881,310.935L133.263,311.167L138.881,315.722C144.748,320.478 149.178,324.429 151.638,327.096L153.087,328.669L152.479,330.751C149.678,340.347 154.879,355.813 162.588,360.812L164.677,362.167L164.49,364.309C164.257,366.975 162.744,374.303 160.808,382.136C159.997,385.419 159.333,388.301 159.333,388.54C159.333,388.779 161.696,387.43 164.583,385.542C171.314,381.141 176.861,377.855 179.921,376.454L182.341,375.347L184.134,376.493C192.828,382.055 206.272,381.931 214.275,376.214L215.717,375.184L219.797,377.249C222.041,378.385 227.376,381.422 231.653,383.999C235.929,386.575 239.464,388.642 239.507,388.592C239.55,388.541 239.083,386.775 238.469,384.667C236.021,376.262 233.673,365.743 233.668,363.154C233.667,362.685 234.344,362.03 235.854,361.037C243.378,356.09 248.258,342.526 246.183,332.327L245.608,329.5L249.908,325.333C252.274,323.042 256.713,319.067 259.773,316.5L265.337,311.833L262.085,311.614C260.297,311.493 256.208,311.226 253,311.021C241.164,310.265 237.839,309.544 237.539,307.669C235.992,297.995 224.374,288.655 212.708,287.707L210.167,287.5L208.1,283.5C206.964,281.3 204.584,276.125 202.812,272C201.039,267.875 199.488,264.389 199.364,264.253C199.24,264.117 197.945,267.108 196.486,270.901M200.325,275.406C200.741,276.558 202.3,279.9 203.79,282.833C205.281,285.767 206.544,288.261 206.598,288.377C206.652,288.492 206.352,288.674 205.931,288.78C204.588,289.118 202.352,291.016 201.412,292.616L200.5,294.167L200.5,303.678C200.5,312.221 200.44,313.282 199.909,314.095C197.797,317.329 197.109,312.596 197.667,298.667C197.82,294.844 197.773,294.388 197.107,293.144C196.43,291.878 193.974,289.34 193.416,289.328C192.24,289.304 192.382,288.634 194.473,284.338C195.662,281.894 197.203,278.357 197.897,276.477C199.334,272.582 199.31,272.593 200.325,275.406M192.554,293.198C195.371,294.94 195.493,295.398 195.073,302.618C194.443,313.46 195.466,318.286 198.515,318.858C202.475,319.601 204.321,311.988 202.966,300.498C201.952,291.899 209.055,289.432 219.833,294.64C234.48,301.718 239.42,315.729 228.293,318.633C216.841,321.621 211.104,325.011 211.838,328.354C212.675,332.168 220.456,331.143 231.006,325.83C244.098,319.237 246.324,345.728 233.663,357.45C228.761,361.988 225.634,361.177 220.833,354.122C216.855,348.276 211.263,343.281 208.617,343.212C203.285,343.072 205.572,350.032 214.392,360.784C217.631,364.733 217.669,367.405 214.535,370.891C206.443,379.89 180.667,375.731 180.667,365.426C180.667,363.536 180.968,363.003 183.692,360.077C190.556,352.705 193.544,347.211 192.021,344.759C189.682,340.993 183.476,345.446 176.401,355.967C173.988,359.555 173.191,360.07 170.277,359.925C158.89,359.359 150.922,330.305 160.775,325.278C162.926,324.181 164.144,324.362 168.562,326.437C179.561,331.604 186.333,332.002 186.333,327.481C186.333,324.581 180.36,321.29 170.603,318.817C165.259,317.462 163.762,315.635 164.075,310.847C164.77,300.203 184.305,288.098 192.554,293.198M160.333,312.106C160.333,315.567 163.055,319.101 166.5,320.114C179.493,323.932 184.086,326.108 182.167,327.534C180.955,328.435 176.278,327.119 168.667,323.736C162.521,321.005 158.2,321.234 155.798,324.417L155.174,325.245L151.504,321.747C149.485,319.823 146.586,317.255 145.06,316.041L142.287,313.833L146.56,313.429C150.73,313.034 159.362,311.74 159.639,311.469C160.006,311.11 160.333,311.41 160.333,312.106M243,313.499C244.925,313.771 248.938,314.093 251.918,314.216L257.336,314.438L255.584,315.605C252.926,317.377 250.836,319.146 247.078,322.806L243.655,326.138L242.649,324.917C239.651,321.28 235.798,320.894 229.773,323.625C222.221,327.049 216.599,328.623 215.717,327.561C214.508,326.104 219.804,323.502 229.5,320.792C234.56,319.377 236.934,317.35 237.508,313.955C237.714,312.731 237.8,312.643 238.616,312.816C239.102,312.92 241.075,313.227 243,313.499M210.612,346.805C211.985,347.515 216.178,352.059 219.098,356C220.525,357.925 222.131,360.047 222.669,360.715C223.984,362.351 226.274,363.42 228.535,363.453C229.524,363.467 230.333,363.487 230.333,363.498C230.333,364.313 232.263,373.976 232.984,376.773C233.543,378.939 234,380.848 234,381.015C234,381.182 232.688,380.459 231.083,379.409C229.479,378.359 225.917,376.375 223.167,374.999L218.167,372.498L218.983,370.851C220.806,367.174 220.317,364.332 217.144,360.174C214.432,356.62 209.725,349.553 209.145,348.167C208.478,346.57 209.079,346.013 210.612,346.805M188.939,347.76C189.106,349.208 187.083,352.181 181.428,358.799C176.935,364.056 176.393,366.712 178.843,371.464C179.305,372.36 179.642,373.125 179.592,373.162C179.541,373.2 177.7,374.18 175.5,375.341C173.3,376.502 170.02,378.328 168.212,379.397C164.953,381.324 164.925,381.334 165.101,380.421C165.2,379.914 165.722,377.4 166.263,374.833C166.804,372.267 167.428,368.667 167.651,366.833L168.056,363.5L169.991,363.464C172.594,363.416 174.727,362.356 176.21,360.373C185.595,347.821 188.603,344.841 188.939,347.76" style="fill:rgb(4,4,4);"/>
    </g>
    <g id="path3" transform="matrix(1.11954,0,0,1.11954,-0.181667,0.390528)">
        <path d="M197.897,276.477C197.203,278.357 195.662,281.894 194.473,284.338C192.382,288.634 192.24,289.304 193.416,289.328C193.974,289.34 196.43,291.878 197.107,293.144C197.773,294.388 197.82,294.844 197.667,298.667C197.109,312.596 197.797,317.329 199.909,314.095C200.44,313.282 200.5,312.221 200.5,303.678L200.5,294.167L201.412,292.616C202.352,291.016 204.588,289.118 205.931,288.78C206.352,288.674 206.652,288.492 206.598,288.377C206.544,288.261 205.281,285.767 203.79,282.833C202.3,279.9 200.741,276.558 200.325,275.406C199.31,272.593 199.334,272.582 197.897,276.477M159.639,311.469C159.362,311.74 150.73,313.034 146.56,313.429L142.287,313.833L145.06,316.041C146.586,317.255 149.485,319.823 151.504,321.747L155.174,325.245L155.798,324.417C158.2,321.234 162.521,321.005 168.667,323.736C176.278,327.119 180.955,328.435 182.167,327.534C184.086,326.108 179.493,323.932 166.5,320.114C163.055,319.101 160.333,315.567 160.333,312.106C160.333,311.41 160.006,311.11 159.639,311.469M237.508,313.955C236.934,317.35 234.56,319.377 229.5,320.792C219.804,323.502 214.508,326.104 215.717,327.561C216.599,328.623 222.221,327.049 229.773,323.625C235.798,320.894 239.651,321.28 242.649,324.917L243.655,326.138L247.078,322.806C250.836,319.146 252.926,317.377 255.584,315.605L257.336,314.438L251.918,314.216C247.193,314.022 241.429,313.415 238.616,312.816C237.8,312.643 237.714,312.731 237.508,313.955M209.083,346.717C208.373,347.427 211.865,353.256 217.144,360.174C220.317,364.332 220.806,367.174 218.983,370.851L218.167,372.498L223.167,374.999C225.917,376.375 229.479,378.359 231.083,379.409C232.688,380.459 234,381.182 234,381.015C234,380.848 233.543,378.939 232.984,376.773C232.263,373.976 230.333,364.313 230.333,363.498C230.333,363.487 229.524,363.467 228.535,363.453C226.274,363.42 223.984,362.351 222.669,360.715C222.131,360.047 220.525,357.925 219.098,356C214.275,349.49 210.142,345.658 209.083,346.717M185.37,348.899C183.466,350.886 180.905,354.094 176.21,360.373C174.727,362.356 172.594,363.416 169.991,363.464L168.056,363.5L167.651,366.833C167.428,368.667 166.804,372.267 166.263,374.833C165.722,377.4 165.2,379.914 165.101,380.421C164.925,381.334 164.953,381.324 168.212,379.397C170.02,378.328 173.3,376.502 175.5,375.341C177.7,374.18 179.541,373.2 179.592,373.162C179.642,373.125 179.305,372.36 178.843,371.464C176.393,366.712 176.935,364.056 181.428,358.799C187.083,352.181 189.106,349.208 188.939,347.76C188.747,346.087 187.763,346.401 185.37,348.899" style="fill:rgb(4,147,131);"/>
    </g>
    <g id="path4" transform="matrix(1.11954,0,0,1.11954,-0.181667,0.390528)">
        <path d="M133.75,10.915C135.721,10.974 138.946,10.974 140.917,10.915C142.887,10.856 141.275,10.808 137.333,10.808C133.392,10.808 131.779,10.856 133.75,10.915M250.417,10.915C252.021,10.976 254.646,10.976 256.25,10.915C257.854,10.854 256.542,10.804 253.333,10.804C250.125,10.804 248.813,10.854 250.417,10.915M104.25,11.247C105.396,11.312 107.271,11.312 108.417,11.247C109.563,11.182 108.625,11.128 106.333,11.128C104.042,11.128 103.104,11.182 104.25,11.247M279.417,11.246C280.471,11.312 282.196,11.312 283.25,11.246C284.304,11.18 283.442,11.126 281.333,11.126C279.225,11.126 278.362,11.18 279.417,11.246M85.417,11.576C86.104,11.648 87.229,11.648 87.917,11.576C88.604,11.504 88.042,11.445 86.667,11.445C85.292,11.445 84.729,11.504 85.417,11.576M298.76,11.579C299.636,11.648 300.986,11.647 301.76,11.577C302.534,11.507 301.817,11.451 300.167,11.452C298.517,11.453 297.884,11.51 298.76,11.579M71.256,11.908C71.855,11.982 72.755,11.981 73.256,11.905C73.757,11.829 73.267,11.768 72.167,11.77C71.067,11.772 70.657,11.834 71.256,11.908M313.576,11.907C314.168,11.981 315.218,11.982 315.909,11.91C316.601,11.838 316.117,11.778 314.833,11.776C313.55,11.775 312.984,11.834 313.576,11.907M59.75,12.239C60.254,12.315 61.079,12.315 61.583,12.239C62.087,12.162 61.675,12.1 60.667,12.1C59.658,12.1 59.246,12.162 59.75,12.239M325.923,12.242C326.522,12.316 327.422,12.314 327.923,12.238C328.424,12.162 327.933,12.101 326.833,12.103C325.733,12.105 325.324,12.167 325.923,12.242M50.583,12.569C50.996,12.648 51.671,12.648 52.083,12.569C52.496,12.489 52.158,12.424 51.333,12.424C50.508,12.424 50.171,12.489 50.583,12.569M336.088,12.573C336.595,12.649 337.345,12.647 337.755,12.568C338.165,12.489 337.75,12.426 336.833,12.429C335.917,12.431 335.581,12.496 336.088,12.573M43.083,12.896C43.404,12.98 43.929,12.98 44.25,12.896C44.571,12.813 44.308,12.744 43.667,12.744C43.025,12.744 42.762,12.813 43.083,12.896M345.254,12.902C345.669,12.982 346.269,12.979 346.587,12.896C346.906,12.812 346.567,12.747 345.833,12.751C345.1,12.754 344.839,12.823 345.254,12.902M352.75,13.23C353.071,13.314 353.596,13.314 353.917,13.23C354.238,13.146 353.975,13.077 353.333,13.077C352.692,13.077 352.429,13.146 352.75,13.23M365.083,13.896C365.404,13.98 365.929,13.98 366.25,13.896C366.571,13.813 366.308,13.744 365.667,13.744C365.025,13.744 364.762,13.813 365.083,13.896M386.136,28C386.136,31.025 386.186,32.262 386.248,30.75C386.31,29.238 386.31,26.762 386.248,25.25C386.186,23.738 386.136,24.975 386.136,28M291.833,75.333L280.5,75.513L291.73,75.59C298.942,75.639 303.034,75.547 303.167,75.333C303.28,75.15 303.326,75.034 303.27,75.077C303.213,75.119 298.067,75.234 291.833,75.333M327.288,75.421C327.428,75.561 332.558,75.636 338.688,75.588L349.833,75.499L338.433,75.333C332.163,75.242 327.147,75.281 327.288,75.421M53.25,75.583C56.413,75.638 61.587,75.638 64.75,75.583C67.912,75.528 65.325,75.483 59,75.483C52.675,75.483 50.087,75.528 53.25,75.583M100.062,75.583C103.121,75.638 108.221,75.638 111.395,75.583C114.57,75.528 112.067,75.483 105.833,75.483C99.6,75.483 97.003,75.528 100.062,75.583M11.484,90.5C11.484,97.283 11.529,100.011 11.583,96.562C11.637,93.112 11.637,87.562 11.583,84.228C11.528,80.894 11.484,83.717 11.484,90.5M168.333,79.235C176.198,79.471 184.001,79.478 184,79.25C184,79.112 179.762,79.031 174.583,79.07C169.404,79.108 166.592,79.182 168.333,79.235M218.77,79.249C221.486,79.305 225.836,79.305 228.437,79.249C231.038,79.193 228.817,79.147 223.5,79.147C218.183,79.147 216.055,79.193 218.77,79.249M280.795,81.147C280.693,81.411 280.669,81.899 280.741,82.231C280.822,82.607 280.936,82.426 281.045,81.75C281.226,80.615 281.108,80.33 280.795,81.147M386.482,96.333C386.482,102.292 386.527,104.729 386.583,101.75C386.638,98.771 386.638,93.896 386.583,90.917C386.527,87.938 386.482,90.375 386.482,96.333M114,110.833C115.181,112.025 116.222,113 116.314,113C116.406,113 115.514,112.025 114.333,110.833C113.152,109.642 112.111,108.667 112.019,108.667C111.928,108.667 112.819,109.642 114,110.833M165.812,110.75L164.833,111.833L165.917,110.854C166.926,109.942 167.153,109.667 166.896,109.667C166.838,109.667 166.351,110.154 165.812,110.75M345.667,109.771C345.667,109.828 346.154,110.316 346.75,110.854L347.833,111.833L346.854,110.75C345.942,109.74 345.667,109.513 345.667,109.771M48.315,112.917L47.167,114.167L48.417,113.018C49.58,111.949 49.82,111.667 49.565,111.667C49.51,111.667 48.947,112.229 48.315,112.917M151.479,114.417L150.5,115.5L151.583,114.521C152.179,113.983 152.667,113.495 152.667,113.438C152.667,113.18 152.392,113.407 151.479,114.417M241.167,118.333C242.07,119.25 242.883,120 242.975,120C243.067,120 242.403,119.25 241.5,118.333C240.597,117.417 239.783,116.667 239.692,116.667C239.6,116.667 240.264,117.417 241.167,118.333M272.818,119.75L271.5,121.167L272.917,119.849C274.234,118.624 274.487,118.333 274.234,118.333C274.18,118.333 273.542,118.971 272.818,119.75M356.333,118.771C356.333,118.828 356.821,119.316 357.417,119.854L358.5,120.833L357.521,119.75C356.608,118.74 356.333,118.513 356.333,118.771M167.649,121.583L166.5,122.833L167.75,121.685C168.438,121.053 169,120.49 169,120.435C169,120.18 168.718,120.42 167.649,121.583M344,120.771C344,120.828 344.488,121.316 345.083,121.854L346.167,122.833L345.188,121.75C344.275,120.74 344,120.513 344,120.771M113.333,122.833C113.955,123.475 114.539,124 114.631,124C114.722,124 114.289,123.475 113.667,122.833C113.045,122.192 112.461,121.667 112.369,121.667C112.278,121.667 112.711,122.192 113.333,122.833M233.167,124.333C234.255,125.433 235.221,126.333 235.312,126.333C235.404,126.333 234.589,125.433 233.5,124.333C232.411,123.233 231.446,122.333 231.354,122.333C231.263,122.333 232.078,123.233 233.167,124.333M49.333,124.5C48.524,125.325 47.936,126 48.028,126C48.12,126 48.857,125.325 49.667,124.5C50.476,123.675 51.064,123 50.972,123C50.88,123 50.143,123.675 49.333,124.5M251.077,124C251.077,124.642 251.146,124.904 251.23,124.583C251.314,124.263 251.314,123.737 251.23,123.417C251.146,123.096 251.077,123.358 251.077,124M279.99,126.583L277.833,128.833L280.083,126.676C281.321,125.49 282.333,124.477 282.333,124.426C282.333,124.181 281.994,124.493 279.99,126.583M350.833,127.333C352.291,128.8 353.559,130 353.651,130C353.743,130 352.625,128.8 351.167,127.333C349.709,125.867 348.441,124.667 348.349,124.667C348.257,124.667 349.375,125.867 350.833,127.333M36.757,126.333C36.757,127.158 36.822,127.496 36.902,127.083C36.981,126.671 36.981,125.996 36.902,125.583C36.822,125.171 36.757,125.508 36.757,126.333M297.812,127.083L296.833,128.167L297.917,127.188C298.512,126.649 299,126.162 299,126.104C299,125.847 298.725,126.074 297.812,127.083M331.333,126.104C331.333,126.162 331.821,126.649 332.417,127.188L333.5,128.167L332.521,127.083C331.608,126.074 331.333,125.847 331.333,126.104M159.326,129.583L156.5,132.5L159.417,129.674C162.126,127.049 162.485,126.667 162.243,126.667C162.193,126.667 160.88,127.979 159.326,129.583M121.904,130.994C123.593,132.722 125.019,134.068 125.073,133.985C125.127,133.902 123.746,132.487 122.003,130.842L118.833,127.851L121.904,130.994M192.996,131.932L193.158,134.167L193.264,132.201C193.322,131.121 193.249,130.115 193.101,129.967C192.954,129.818 192.906,130.703 192.996,131.932M41.348,132.152C40.546,132.969 39.741,133.546 39.56,133.434C39.366,133.314 39.337,133.402 39.488,133.647C39.698,133.986 43,131.274 43,130.763C43,130.521 42.707,130.767 41.348,132.152M76.417,133.167C76.421,133.9 76.489,134.161 76.569,133.746C76.649,133.331 76.646,132.731 76.562,132.413C76.479,132.094 76.414,132.433 76.417,133.167M321.1,135.333C321.1,136.342 321.162,136.754 321.239,136.25C321.315,135.746 321.315,134.921 321.239,134.417C321.162,133.912 321.1,134.325 321.1,135.333M309.095,135.5C309.098,136.417 309.163,136.752 309.239,136.245C309.316,135.739 309.314,134.989 309.235,134.579C309.156,134.169 309.093,134.583 309.095,135.5M205.077,135.333C205.077,135.975 205.146,136.237 205.23,135.917C205.314,135.596 205.314,135.071 205.23,134.75C205.146,134.429 205.077,134.692 205.077,135.333M88.411,137.667C88.411,138.308 88.479,138.571 88.563,138.25C88.647,137.929 88.647,137.404 88.563,137.083C88.479,136.762 88.411,137.025 88.411,137.667M192.744,137.667C192.744,138.308 192.813,138.571 192.896,138.25C192.98,137.929 192.98,137.404 192.896,137.083C192.813,136.762 192.744,137.025 192.744,137.667M76.077,138.667C76.077,139.308 76.146,139.571 76.23,139.25C76.314,138.929 76.314,138.404 76.23,138.083C76.146,137.762 76.077,138.025 76.077,138.667M233.847,147.653C233.138,148.379 232.41,148.88 232.228,148.768C232.042,148.653 232.001,148.733 232.135,148.948C232.451,149.461 232.334,149.531 234,147.833C234.81,147.008 235.396,146.333 235.304,146.333C235.211,146.333 234.555,146.927 233.847,147.653M47.405,149.167C48.269,150.066 49.027,150.733 49.089,150.651C49.151,150.568 48.444,149.832 47.518,149.017L45.833,147.533L47.405,149.167M161.667,153.5C162.662,154.508 163.552,155.333 163.644,155.333C163.736,155.333 162.996,154.508 162,153.5C161.004,152.492 160.114,151.667 160.023,151.667C159.931,151.667 160.671,152.492 161.667,153.5M119.649,154.917L118.5,156.167L119.75,155.018C120.438,154.386 121,153.824 121,153.768C121,153.513 120.718,153.753 119.649,154.917M54.333,155.104C54.333,155.162 54.821,155.649 55.417,156.188L56.5,157.167L55.521,156.083C54.608,155.074 54.333,154.847 54.333,155.104M386.816,170C386.816,175.958 386.861,178.396 386.916,175.417C386.971,172.438 386.971,167.563 386.916,164.583C386.861,161.604 386.816,164.042 386.816,170M11.151,174.5C11.151,181.283 11.195,184.011 11.25,180.562C11.304,177.112 11.304,171.562 11.249,168.228C11.195,164.894 11.151,167.717 11.151,174.5M136.917,220.249C139.529,220.306 143.804,220.306 146.417,220.249C149.029,220.193 146.892,220.147 141.667,220.147C136.442,220.147 134.304,220.193 136.917,220.249M254.083,220.249C256.787,220.305 261.212,220.305 263.917,220.249C266.621,220.193 264.408,220.147 259,220.147C253.592,220.147 251.379,220.193 254.083,220.249M98.25,220.581C99.763,220.643 102.237,220.643 103.75,220.581C105.263,220.52 104.025,220.469 101,220.469C97.975,220.469 96.737,220.52 98.25,220.581M296.917,220.581C298.429,220.643 300.904,220.643 302.417,220.581C303.929,220.52 302.692,220.469 299.667,220.469C296.642,220.469 295.404,220.52 296.917,220.581M74.429,220.913C75.49,220.98 77.14,220.979 78.096,220.912C79.051,220.845 78.183,220.791 76.167,220.791C74.15,220.792 73.368,220.847 74.429,220.913M322.083,220.913C323.137,220.979 324.862,220.979 325.917,220.913C326.971,220.847 326.108,220.793 324,220.793C321.892,220.793 321.029,220.847 322.083,220.913M56.583,221.244C57.362,221.314 58.637,221.314 59.417,221.244C60.196,221.174 59.558,221.116 58,221.116C56.442,221.116 55.804,221.174 56.583,221.244M341.583,221.244C342.363,221.314 343.637,221.314 344.417,221.244C345.196,221.174 344.558,221.116 343,221.116C341.442,221.116 340.804,221.174 341.583,221.244M41.25,221.574C41.846,221.648 42.821,221.648 43.417,221.574C44.012,221.501 43.525,221.44 42.333,221.44C41.142,221.44 40.654,221.501 41.25,221.574M355.909,221.574C356.501,221.648 357.551,221.649 358.243,221.577C358.934,221.504 358.45,221.444 357.167,221.443C355.883,221.441 355.317,221.5 355.909,221.574M29.083,221.905C29.587,221.982 30.412,221.982 30.917,221.905C31.421,221.829 31.008,221.767 30,221.767C28.992,221.767 28.579,221.829 29.083,221.905M368.417,221.905C368.921,221.982 369.746,221.982 370.25,221.905C370.754,221.829 370.342,221.767 369.333,221.767C368.325,221.767 367.912,221.829 368.417,221.905M19.088,222.239C19.595,222.316 20.345,222.314 20.755,222.235C21.165,222.156 20.75,222.093 19.833,222.095C18.917,222.098 18.581,222.163 19.088,222.239M378.583,222.235C378.996,222.315 379.671,222.315 380.083,222.235C380.496,222.156 380.158,222.091 379.333,222.091C378.508,222.091 378.171,222.156 378.583,222.235M192.604,228.583C195.411,228.639 199.911,228.638 202.604,228.583C205.297,228.527 203,228.481 197.5,228.481C192,228.481 189.797,228.527 192.604,228.583M165.583,228.915C167.096,228.976 169.571,228.976 171.083,228.915C172.596,228.853 171.358,228.802 168.333,228.802C165.308,228.802 164.071,228.853 165.583,228.915M226.417,228.915C228.021,228.976 230.646,228.976 232.25,228.915C233.854,228.854 232.542,228.804 229.333,228.804C226.125,228.804 224.813,228.854 226.417,228.915M152.982,231.583L151.833,232.833L153.083,231.685C154.247,230.615 154.487,230.333 154.232,230.333C154.176,230.333 153.614,230.896 152.982,231.583M152.333,238.438C152.333,238.495 152.821,238.983 153.417,239.521L154.5,240.5L153.521,239.417C152.608,238.407 152.333,238.18 152.333,238.438M244.812,239.417L243.833,240.5L244.917,239.521C245.926,238.608 246.153,238.333 245.896,238.333C245.838,238.333 245.351,238.821 244.812,239.417M244,276.104C244,276.162 244.487,276.649 245.083,277.188L246.167,278.167L245.188,277.083C244.275,276.074 244,275.847 244,276.104M166.818,296.417L165.5,297.833L166.917,296.516C168.234,295.29 168.487,295 168.234,295C168.18,295 167.542,295.637 166.818,296.417M305.649,299.917L304.5,301.167L305.75,300.018C306.438,299.386 307,298.824 307,298.768C307,298.513 306.718,298.753 305.649,299.917M267,299.104C267,299.162 267.487,299.649 268.083,300.188L269.167,301.167L268.188,300.083C267.275,299.074 267,298.847 267,299.104M335.333,299.104C335.333,299.162 335.821,299.649 336.417,300.188L337.5,301.167L336.521,300.083C335.608,299.074 335.333,298.847 335.333,299.104M11.095,304.167C11.098,305.083 11.163,305.419 11.239,304.912C11.316,304.405 11.314,303.655 11.235,303.245C11.156,302.835 11.093,303.25 11.095,304.167M194.757,305.333C194.757,306.158 194.822,306.496 194.902,306.083C194.981,305.671 194.981,304.996 194.902,304.583C194.822,304.171 194.757,304.508 194.757,305.333M139.75,310.563C140.071,310.647 140.596,310.647 140.917,310.563C141.237,310.479 140.975,310.411 140.333,310.411C139.692,310.411 139.429,310.479 139.75,310.563M250.083,310.896C250.404,310.98 250.929,310.98 251.25,310.896C251.571,310.813 251.308,310.744 250.667,310.744C250.025,310.744 249.762,310.813 250.083,310.896M254.917,311.235C255.329,311.315 256.004,311.315 256.417,311.235C256.829,311.156 256.492,311.091 255.667,311.091C254.842,311.091 254.504,311.156 254.917,311.235M261.755,311.573C262.261,311.649 263.011,311.647 263.421,311.568C263.831,311.489 263.417,311.426 262.5,311.429C261.583,311.431 261.248,311.496 261.755,311.573M251.812,323.417L250.833,324.5L251.917,323.521C252.512,322.983 253,322.495 253,322.438C253,322.18 252.725,322.407 251.812,323.417M215.254,330.902C215.669,330.982 216.269,330.979 216.587,330.896C216.906,330.812 216.567,330.747 215.833,330.751C215.1,330.754 214.839,330.823 215.254,330.902M242.1,335.667C242.1,336.675 242.162,337.087 242.239,336.583C242.315,336.079 242.315,335.254 242.239,334.75C242.162,334.246 242.1,334.658 242.1,335.667M215,347.167C215.622,347.808 216.206,348.333 216.297,348.333C216.389,348.333 215.955,347.808 215.333,347.167C214.711,346.525 214.128,346 214.036,346C213.944,346 214.378,346.525 215,347.167M198.917,375.908C199.512,375.982 200.487,375.982 201.083,375.908C201.679,375.834 201.192,375.773 200,375.773C198.808,375.773 198.321,375.834 198.917,375.908M69.812,382.75L68.833,383.833L69.917,382.854C70.512,382.316 71,381.828 71,381.771C71,381.513 70.725,381.74 69.812,382.75M107.667,382.833C108.289,383.475 108.872,384 108.964,384C109.056,384 108.622,383.475 108,382.833C107.378,382.192 106.794,381.667 106.703,381.667C106.611,381.667 107.045,382.192 107.667,382.833M138.146,382.75L137.167,383.833L138.25,382.854C139.26,381.942 139.487,381.667 139.229,381.667C139.172,381.667 138.684,382.154 138.146,382.75M259,381.771C259,381.828 259.487,382.316 260.083,382.854L261.167,383.833L260.188,382.75C259.275,381.74 259,381.513 259,381.771M290.315,382.917L289.167,384.167L290.417,383.018C291.58,381.949 291.82,381.667 291.565,381.667C291.51,381.667 290.947,382.229 290.315,382.917M327.333,381.771C327.333,381.828 327.821,382.316 328.417,382.854L329.5,383.833L328.521,382.75C327.608,381.74 327.333,381.513 327.333,381.771M156.433,390.333C156.433,391.342 156.496,391.754 156.572,391.25C156.648,390.746 156.648,389.921 156.572,389.417C156.496,388.912 156.433,389.325 156.433,390.333M241.767,390.333C241.767,391.342 241.829,391.754 241.905,391.25C241.982,390.746 241.982,389.921 241.905,389.417C241.829,388.912 241.767,389.325 241.767,390.333M156.429,413.167C156.431,414.083 156.496,414.419 156.573,413.912C156.649,413.405 156.647,412.655 156.568,412.245C156.489,411.835 156.426,412.25 156.429,413.167M241.762,413.167C241.765,414.083 241.829,414.419 241.906,413.912C241.982,413.405 241.98,412.655 241.901,412.245C241.822,411.835 241.76,412.25 241.762,413.167M244.667,420.5C245.289,421.142 245.872,421.667 245.964,421.667C246.056,421.667 245.622,421.142 245,420.5C244.378,419.858 243.794,419.333 243.703,419.333C243.611,419.333 244.045,419.858 244.667,420.5M152.333,427.438C152.333,427.495 152.821,427.983 153.417,428.521L154.5,429.5L153.521,428.417C152.608,427.407 152.333,427.18 152.333,427.438M244.812,428.417L243.833,429.5L244.917,428.521C245.512,427.983 246,427.495 246,427.438C246,427.18 245.725,427.407 244.812,428.417M156.429,435.833C156.431,436.75 156.496,437.085 156.573,436.579C156.649,436.072 156.647,435.322 156.568,434.912C156.489,434.502 156.426,434.917 156.429,435.833M241.762,435.833C241.765,436.75 241.829,437.085 241.906,436.579C241.982,436.072 241.98,435.322 241.901,434.912C241.822,434.502 241.76,434.917 241.762,435.833M156.433,458.667C156.433,459.675 156.496,460.087 156.572,459.583C156.648,459.079 156.648,458.254 156.572,457.75C156.496,457.246 156.433,457.658 156.433,458.667M241.767,458.667C241.767,459.675 241.829,460.087 241.905,459.583C241.982,459.079 241.982,458.254 241.905,457.75C241.829,457.246 241.767,457.658 241.767,458.667" style="fill:rgb(73,84,49);"/>
    </g>
    <g transform="matrix(0.28169,0,0,0.28169,185.077,207.987)">
        <circle cx="132.348" cy="586.798" r="46.843" style="fill:rgb(255,228,0);"/>
    </g>
    <g transform="matrix(4.61822,0,0,4.61822,84.8463,-1457.07)">
        <text x="91.309px" y="356.277px" style="font-family:'Arial-BoldMT', 'Arial', sans-serif;font-weight:700;font-size:50px;fill:white;">University of</text>
    </g>
    <g transform="matrix(7.08185,0,0,7.08185,-145.645,-2011.81)">
        <text x="91.309px" y="356.277px" style="font-family:'VestaPro-ExtraBold', 'Vesta Pro', sans-serif;font-weight:800;font-size:50px;fill:white;">Reading</text>
    </g>
    <g id="path21" serif:id="path2" transform="matrix(1,0,0,1,457.641,-1310.98)">
        <path d="M-323.518,1311.34C-375.716,1311.86 -423.427,1313.57 -436.285,1315.37C-446.252,1316.77 -454.156,1323.24 -456.174,1331.63C-457.079,1335.4 -458.019,1648.04 -457.149,1656.2C-451.695,1707.33 -423.645,1754.03 -375.203,1792.61C-334.598,1824.95 -286.967,1855.99 -248.448,1875.21C-233.32,1882.76 -236.155,1882.7 -222.365,1875.75C-183.552,1856.19 -131.138,1821.91 -92.146,1790.58C-44.806,1752.54 -17.169,1706.02 -12.242,1656.09C-11.655,1650.13 -11.662,1639.95 -12.356,1490.95L-13.095,1332.16L-13.898,1329.71C-16.059,1323.1 -22.018,1317.74 -28.997,1316.12C-44.715,1312.48 -194.73,1310.04 -323.518,1311.34ZM-24.37,1560.36L-24.37,1650.08L-24.314,1650.11L-24.37,1650.9L-24.37,1651L-24.377,1651L-24.54,1653.29C-26.345,1678.72 -39.81,1712.17 -58.899,1738.64C-60.327,1740.62 -73.859,1758.9 -97.202,1777.91C-131.069,1805.48 -178.3,1836.41 -178.404,1836.5C-182.868,1840.44 -209.947,1856.03 -227.078,1864.52L-234.757,1868.32L-239.393,1866.19C-252.151,1860.32 -276.24,1846.89 -287.66,1839.28C-287.66,1839.28 -332.646,1811.24 -366.729,1783.51C-392.231,1762.75 -409.016,1740.72 -410.521,1738.64C-429.719,1712.16 -442.932,1679.54 -445.191,1653.06L-445.45,1650.03L-445.295,1649.97L-445.295,1560.37L-445.441,1560.36L-445.165,1488.25C-445.014,1448.58 -444.785,1397.83 -444.657,1375.45L-444.425,1334.78L-443.601,1333.24C-441.71,1329.69 -439.194,1328.13 -434.096,1327.35C-422.641,1325.58 -386.297,1324.16 -332.66,1323.4C-303.861,1323 -147.619,1323.24 -126.851,1323.73C-69.194,1325.08 -36.391,1326.64 -32.177,1328.24C-29.663,1329.2 -27.721,1330.87 -26.446,1333.16L-25.346,1335.15L-25.115,1379.75C-24.989,1404.27 -24.756,1454.95 -24.599,1492.35L-24.314,1560.37L-24.37,1560.36Z" style="fill:white;"/>
    </g>
</svg>
